<mxfile host="app.diagrams.net" modified="2021-09-22T08:24:42.321Z" agent="5.0 (Macintosh; Intel Mac OS X 10_15_7) AppleWebKit/605.1.15 (KHTML, like Gecko) Version/14.1.1 Safari/605.1.15" etag="Tgy52hxgMdSdmWKGcdrF" version="15.2.9" type="github">
  <diagram id="o0QO030AYa-Z26iIgUmp" name="Page-1">
    <mxGraphModel dx="2050" dy="790" grid="1" gridSize="10" guides="1" tooltips="1" connect="1" arrows="1" fold="1" page="1" pageScale="1" pageWidth="850" pageHeight="1100" math="0" shadow="0">
      <root>
        <mxCell id="0" />
        <mxCell id="1" parent="0" />
        <mxCell id="dN4xW0M0NbgQwwogxyiH-193" value="Region" style="shape=table;startSize=30;container=1;collapsible=0;childLayout=tableLayout;fillColor=#ffe6cc;strokeColor=#d79b00;" parent="1" vertex="1">
          <mxGeometry x="-680" y="1380" width="480" height="220" as="geometry" />
        </mxCell>
        <mxCell id="dN4xW0M0NbgQwwogxyiH-194" value="" style="shape=partialRectangle;collapsible=0;dropTarget=0;pointerEvents=0;fillColor=none;top=0;left=0;bottom=0;right=0;points=[[0,0.5],[1,0.5]];portConstraint=eastwest;" parent="dN4xW0M0NbgQwwogxyiH-193" vertex="1">
          <mxGeometry y="30" width="480" height="20" as="geometry" />
        </mxCell>
        <mxCell id="dN4xW0M0NbgQwwogxyiH-195" value="Название" style="shape=partialRectangle;html=1;whiteSpace=wrap;connectable=0;overflow=hidden;fillColor=none;top=0;left=0;bottom=0;right=0;pointerEvents=1;" parent="dN4xW0M0NbgQwwogxyiH-194" vertex="1">
          <mxGeometry width="109" height="20" as="geometry">
            <mxRectangle width="109" height="20" as="alternateBounds" />
          </mxGeometry>
        </mxCell>
        <mxCell id="dN4xW0M0NbgQwwogxyiH-196" value="Описание" style="shape=partialRectangle;html=1;whiteSpace=wrap;connectable=0;overflow=hidden;fillColor=none;top=0;left=0;bottom=0;right=0;pointerEvents=1;" parent="dN4xW0M0NbgQwwogxyiH-194" vertex="1">
          <mxGeometry x="109" width="180" height="20" as="geometry">
            <mxRectangle width="180" height="20" as="alternateBounds" />
          </mxGeometry>
        </mxCell>
        <mxCell id="dN4xW0M0NbgQwwogxyiH-197" value="Тип данных" style="shape=partialRectangle;html=1;whiteSpace=wrap;connectable=0;overflow=hidden;fillColor=none;top=0;left=0;bottom=0;right=0;pointerEvents=1;" parent="dN4xW0M0NbgQwwogxyiH-194" vertex="1">
          <mxGeometry x="289" width="105" height="20" as="geometry">
            <mxRectangle width="105" height="20" as="alternateBounds" />
          </mxGeometry>
        </mxCell>
        <mxCell id="dN4xW0M0NbgQwwogxyiH-198" value="Ограничение" style="shape=partialRectangle;html=1;whiteSpace=wrap;connectable=0;overflow=hidden;fillColor=none;top=0;left=0;bottom=0;right=0;pointerEvents=1;" parent="dN4xW0M0NbgQwwogxyiH-194" vertex="1">
          <mxGeometry x="394" width="86" height="20" as="geometry">
            <mxRectangle width="86" height="20" as="alternateBounds" />
          </mxGeometry>
        </mxCell>
        <mxCell id="dN4xW0M0NbgQwwogxyiH-199" value="" style="shape=partialRectangle;collapsible=0;dropTarget=0;pointerEvents=0;fillColor=none;top=0;left=0;bottom=0;right=0;points=[[0,0.5],[1,0.5]];portConstraint=eastwest;" parent="dN4xW0M0NbgQwwogxyiH-193" vertex="1">
          <mxGeometry y="50" width="480" height="40" as="geometry" />
        </mxCell>
        <mxCell id="dN4xW0M0NbgQwwogxyiH-200" value="REGION_ID" style="shape=partialRectangle;html=1;whiteSpace=wrap;connectable=0;overflow=hidden;fillColor=none;top=0;left=0;bottom=0;right=0;pointerEvents=1;" parent="dN4xW0M0NbgQwwogxyiH-199" vertex="1">
          <mxGeometry width="109" height="40" as="geometry">
            <mxRectangle width="109" height="40" as="alternateBounds" />
          </mxGeometry>
        </mxCell>
        <mxCell id="dN4xW0M0NbgQwwogxyiH-201" value="Идентификатор региона&amp;nbsp;" style="shape=partialRectangle;html=1;whiteSpace=wrap;connectable=0;overflow=hidden;fillColor=none;top=0;left=0;bottom=0;right=0;pointerEvents=1;" parent="dN4xW0M0NbgQwwogxyiH-199" vertex="1">
          <mxGeometry x="109" width="180" height="40" as="geometry">
            <mxRectangle width="180" height="40" as="alternateBounds" />
          </mxGeometry>
        </mxCell>
        <mxCell id="dN4xW0M0NbgQwwogxyiH-202" value="SERIAL" style="shape=partialRectangle;html=1;whiteSpace=wrap;connectable=0;overflow=hidden;fillColor=none;top=0;left=0;bottom=0;right=0;pointerEvents=1;" parent="dN4xW0M0NbgQwwogxyiH-199" vertex="1">
          <mxGeometry x="289" width="105" height="40" as="geometry">
            <mxRectangle width="105" height="40" as="alternateBounds" />
          </mxGeometry>
        </mxCell>
        <mxCell id="dN4xW0M0NbgQwwogxyiH-203" value="PRIMARY KEY" style="shape=partialRectangle;html=1;whiteSpace=wrap;connectable=0;overflow=hidden;fillColor=none;top=0;left=0;bottom=0;right=0;pointerEvents=1;" parent="dN4xW0M0NbgQwwogxyiH-199" vertex="1">
          <mxGeometry x="394" width="86" height="40" as="geometry">
            <mxRectangle width="86" height="40" as="alternateBounds" />
          </mxGeometry>
        </mxCell>
        <mxCell id="dN4xW0M0NbgQwwogxyiH-204" value="" style="shape=partialRectangle;collapsible=0;dropTarget=0;pointerEvents=0;fillColor=none;top=0;left=0;bottom=0;right=0;points=[[0,0.5],[1,0.5]];portConstraint=eastwest;" parent="dN4xW0M0NbgQwwogxyiH-193" vertex="1">
          <mxGeometry y="90" width="480" height="40" as="geometry" />
        </mxCell>
        <mxCell id="dN4xW0M0NbgQwwogxyiH-205" value="REGION_NM" style="shape=partialRectangle;html=1;whiteSpace=wrap;connectable=0;overflow=hidden;fillColor=none;top=0;left=0;bottom=0;right=0;pointerEvents=1;" parent="dN4xW0M0NbgQwwogxyiH-204" vertex="1">
          <mxGeometry width="109" height="40" as="geometry">
            <mxRectangle width="109" height="40" as="alternateBounds" />
          </mxGeometry>
        </mxCell>
        <mxCell id="dN4xW0M0NbgQwwogxyiH-206" value="Название региона" style="shape=partialRectangle;html=1;whiteSpace=wrap;connectable=0;overflow=hidden;fillColor=none;top=0;left=0;bottom=0;right=0;pointerEvents=1;" parent="dN4xW0M0NbgQwwogxyiH-204" vertex="1">
          <mxGeometry x="109" width="180" height="40" as="geometry">
            <mxRectangle width="180" height="40" as="alternateBounds" />
          </mxGeometry>
        </mxCell>
        <mxCell id="dN4xW0M0NbgQwwogxyiH-207" value="VARCHAR(255)" style="shape=partialRectangle;html=1;whiteSpace=wrap;connectable=0;overflow=hidden;fillColor=none;top=0;left=0;bottom=0;right=0;pointerEvents=1;" parent="dN4xW0M0NbgQwwogxyiH-204" vertex="1">
          <mxGeometry x="289" width="105" height="40" as="geometry">
            <mxRectangle width="105" height="40" as="alternateBounds" />
          </mxGeometry>
        </mxCell>
        <mxCell id="dN4xW0M0NbgQwwogxyiH-208" value="NOT NULL" style="shape=partialRectangle;html=1;whiteSpace=wrap;connectable=0;overflow=hidden;fillColor=none;top=0;left=0;bottom=0;right=0;pointerEvents=1;" parent="dN4xW0M0NbgQwwogxyiH-204" vertex="1">
          <mxGeometry x="394" width="86" height="40" as="geometry">
            <mxRectangle width="86" height="40" as="alternateBounds" />
          </mxGeometry>
        </mxCell>
        <mxCell id="dN4xW0M0NbgQwwogxyiH-209" value="" style="shape=partialRectangle;collapsible=0;dropTarget=0;pointerEvents=0;fillColor=none;top=0;left=0;bottom=0;right=0;points=[[0,0.5],[1,0.5]];portConstraint=eastwest;" parent="dN4xW0M0NbgQwwogxyiH-193" vertex="1">
          <mxGeometry y="130" width="480" height="40" as="geometry" />
        </mxCell>
        <mxCell id="dN4xW0M0NbgQwwogxyiH-210" value="REGION_DESC" style="shape=partialRectangle;html=1;whiteSpace=wrap;connectable=0;overflow=hidden;fillColor=none;top=0;left=0;bottom=0;right=0;pointerEvents=1;" parent="dN4xW0M0NbgQwwogxyiH-209" vertex="1">
          <mxGeometry width="109" height="40" as="geometry">
            <mxRectangle width="109" height="40" as="alternateBounds" />
          </mxGeometry>
        </mxCell>
        <mxCell id="dN4xW0M0NbgQwwogxyiH-211" value="Описание региона" style="shape=partialRectangle;html=1;whiteSpace=wrap;connectable=0;overflow=hidden;fillColor=none;top=0;left=0;bottom=0;right=0;pointerEvents=1;" parent="dN4xW0M0NbgQwwogxyiH-209" vertex="1">
          <mxGeometry x="109" width="180" height="40" as="geometry">
            <mxRectangle width="180" height="40" as="alternateBounds" />
          </mxGeometry>
        </mxCell>
        <mxCell id="dN4xW0M0NbgQwwogxyiH-212" value="VARCHAR(1000)" style="shape=partialRectangle;html=1;whiteSpace=wrap;connectable=0;overflow=hidden;fillColor=none;top=0;left=0;bottom=0;right=0;pointerEvents=1;" parent="dN4xW0M0NbgQwwogxyiH-209" vertex="1">
          <mxGeometry x="289" width="105" height="40" as="geometry">
            <mxRectangle width="105" height="40" as="alternateBounds" />
          </mxGeometry>
        </mxCell>
        <mxCell id="dN4xW0M0NbgQwwogxyiH-213" value="" style="shape=partialRectangle;html=1;whiteSpace=wrap;connectable=0;overflow=hidden;fillColor=none;top=0;left=0;bottom=0;right=0;pointerEvents=1;" parent="dN4xW0M0NbgQwwogxyiH-209" vertex="1">
          <mxGeometry x="394" width="86" height="40" as="geometry">
            <mxRectangle width="86" height="40" as="alternateBounds" />
          </mxGeometry>
        </mxCell>
        <mxCell id="dN4xW0M0NbgQwwogxyiH-214" value="" style="shape=partialRectangle;collapsible=0;dropTarget=0;pointerEvents=0;fillColor=none;top=0;left=0;bottom=0;right=0;points=[[0,0.5],[1,0.5]];portConstraint=eastwest;" parent="dN4xW0M0NbgQwwogxyiH-193" vertex="1">
          <mxGeometry y="170" width="480" height="50" as="geometry" />
        </mxCell>
        <mxCell id="dN4xW0M0NbgQwwogxyiH-215" value="IS_PUBLISHED" style="shape=partialRectangle;html=1;whiteSpace=wrap;connectable=0;overflow=hidden;fillColor=none;top=0;left=0;bottom=0;right=0;pointerEvents=1;" parent="dN4xW0M0NbgQwwogxyiH-214" vertex="1">
          <mxGeometry width="109" height="50" as="geometry">
            <mxRectangle width="109" height="50" as="alternateBounds" />
          </mxGeometry>
        </mxCell>
        <mxCell id="dN4xW0M0NbgQwwogxyiH-216" value="Опубликован ли регион" style="shape=partialRectangle;html=1;whiteSpace=wrap;connectable=0;overflow=hidden;fillColor=none;top=0;left=0;bottom=0;right=0;pointerEvents=1;" parent="dN4xW0M0NbgQwwogxyiH-214" vertex="1">
          <mxGeometry x="109" width="180" height="50" as="geometry">
            <mxRectangle width="180" height="50" as="alternateBounds" />
          </mxGeometry>
        </mxCell>
        <mxCell id="dN4xW0M0NbgQwwogxyiH-217" value="BOOLEAN" style="shape=partialRectangle;html=1;whiteSpace=wrap;connectable=0;overflow=hidden;fillColor=none;top=0;left=0;bottom=0;right=0;pointerEvents=1;" parent="dN4xW0M0NbgQwwogxyiH-214" vertex="1">
          <mxGeometry x="289" width="105" height="50" as="geometry">
            <mxRectangle width="105" height="50" as="alternateBounds" />
          </mxGeometry>
        </mxCell>
        <mxCell id="dN4xW0M0NbgQwwogxyiH-218" value="NOT NULL DEFAULT FALSE" style="shape=partialRectangle;html=1;whiteSpace=wrap;connectable=0;overflow=hidden;fillColor=none;top=0;left=0;bottom=0;right=0;pointerEvents=1;" parent="dN4xW0M0NbgQwwogxyiH-214" vertex="1">
          <mxGeometry x="394" width="86" height="50" as="geometry">
            <mxRectangle width="86" height="50" as="alternateBounds" />
          </mxGeometry>
        </mxCell>
        <mxCell id="dN4xW0M0NbgQwwogxyiH-219" value="Museum" style="shape=table;startSize=30;container=1;collapsible=0;childLayout=tableLayout;fillColor=#ffe6cc;strokeColor=#d79b00;" parent="1" vertex="1">
          <mxGeometry x="-20" y="1340" width="570" height="290" as="geometry" />
        </mxCell>
        <mxCell id="dN4xW0M0NbgQwwogxyiH-220" value="" style="shape=partialRectangle;collapsible=0;dropTarget=0;pointerEvents=0;fillColor=none;top=0;left=0;bottom=0;right=0;points=[[0,0.5],[1,0.5]];portConstraint=eastwest;" parent="dN4xW0M0NbgQwwogxyiH-219" vertex="1">
          <mxGeometry y="30" width="570" height="20" as="geometry" />
        </mxCell>
        <mxCell id="dN4xW0M0NbgQwwogxyiH-221" value="Название" style="shape=partialRectangle;html=1;whiteSpace=wrap;connectable=0;overflow=hidden;fillColor=none;top=0;left=0;bottom=0;right=0;pointerEvents=1;" parent="dN4xW0M0NbgQwwogxyiH-220" vertex="1">
          <mxGeometry width="113" height="20" as="geometry">
            <mxRectangle width="113" height="20" as="alternateBounds" />
          </mxGeometry>
        </mxCell>
        <mxCell id="dN4xW0M0NbgQwwogxyiH-222" value="Описание" style="shape=partialRectangle;html=1;whiteSpace=wrap;connectable=0;overflow=hidden;fillColor=none;top=0;left=0;bottom=0;right=0;pointerEvents=1;" parent="dN4xW0M0NbgQwwogxyiH-220" vertex="1">
          <mxGeometry x="113" width="172" height="20" as="geometry">
            <mxRectangle width="172" height="20" as="alternateBounds" />
          </mxGeometry>
        </mxCell>
        <mxCell id="dN4xW0M0NbgQwwogxyiH-223" value="Тип данных" style="shape=partialRectangle;html=1;whiteSpace=wrap;connectable=0;overflow=hidden;fillColor=none;top=0;left=0;bottom=0;right=0;pointerEvents=1;" parent="dN4xW0M0NbgQwwogxyiH-220" vertex="1">
          <mxGeometry x="285" width="116" height="20" as="geometry">
            <mxRectangle width="116" height="20" as="alternateBounds" />
          </mxGeometry>
        </mxCell>
        <mxCell id="dN4xW0M0NbgQwwogxyiH-224" value="Ограничение" style="shape=partialRectangle;html=1;whiteSpace=wrap;connectable=0;overflow=hidden;fillColor=none;top=0;left=0;bottom=0;right=0;pointerEvents=1;" parent="dN4xW0M0NbgQwwogxyiH-220" vertex="1">
          <mxGeometry x="401" width="169" height="20" as="geometry">
            <mxRectangle width="169" height="20" as="alternateBounds" />
          </mxGeometry>
        </mxCell>
        <mxCell id="dN4xW0M0NbgQwwogxyiH-225" value="" style="shape=partialRectangle;collapsible=0;dropTarget=0;pointerEvents=0;fillColor=none;top=0;left=0;bottom=0;right=0;points=[[0,0.5],[1,0.5]];portConstraint=eastwest;" parent="dN4xW0M0NbgQwwogxyiH-219" vertex="1">
          <mxGeometry y="50" width="570" height="40" as="geometry" />
        </mxCell>
        <mxCell id="dN4xW0M0NbgQwwogxyiH-226" value="MUSEUM_ID" style="shape=partialRectangle;html=1;whiteSpace=wrap;connectable=0;overflow=hidden;fillColor=none;top=0;left=0;bottom=0;right=0;pointerEvents=1;" parent="dN4xW0M0NbgQwwogxyiH-225" vertex="1">
          <mxGeometry width="113" height="40" as="geometry">
            <mxRectangle width="113" height="40" as="alternateBounds" />
          </mxGeometry>
        </mxCell>
        <mxCell id="dN4xW0M0NbgQwwogxyiH-227" value="Идентификатор музея&amp;nbsp;" style="shape=partialRectangle;html=1;whiteSpace=wrap;connectable=0;overflow=hidden;fillColor=none;top=0;left=0;bottom=0;right=0;pointerEvents=1;" parent="dN4xW0M0NbgQwwogxyiH-225" vertex="1">
          <mxGeometry x="113" width="172" height="40" as="geometry">
            <mxRectangle width="172" height="40" as="alternateBounds" />
          </mxGeometry>
        </mxCell>
        <mxCell id="dN4xW0M0NbgQwwogxyiH-228" value="SERIAL" style="shape=partialRectangle;html=1;whiteSpace=wrap;connectable=0;overflow=hidden;fillColor=none;top=0;left=0;bottom=0;right=0;pointerEvents=1;" parent="dN4xW0M0NbgQwwogxyiH-225" vertex="1">
          <mxGeometry x="285" width="116" height="40" as="geometry">
            <mxRectangle width="116" height="40" as="alternateBounds" />
          </mxGeometry>
        </mxCell>
        <mxCell id="dN4xW0M0NbgQwwogxyiH-229" value="PRIMARY KEY" style="shape=partialRectangle;html=1;whiteSpace=wrap;connectable=0;overflow=hidden;fillColor=none;top=0;left=0;bottom=0;right=0;pointerEvents=1;" parent="dN4xW0M0NbgQwwogxyiH-225" vertex="1">
          <mxGeometry x="401" width="169" height="40" as="geometry">
            <mxRectangle width="169" height="40" as="alternateBounds" />
          </mxGeometry>
        </mxCell>
        <mxCell id="dN4xW0M0NbgQwwogxyiH-230" value="" style="shape=partialRectangle;collapsible=0;dropTarget=0;pointerEvents=0;fillColor=none;top=0;left=0;bottom=0;right=0;points=[[0,0.5],[1,0.5]];portConstraint=eastwest;" parent="dN4xW0M0NbgQwwogxyiH-219" vertex="1">
          <mxGeometry y="90" width="570" height="40" as="geometry" />
        </mxCell>
        <mxCell id="dN4xW0M0NbgQwwogxyiH-231" value="REGION_ID" style="shape=partialRectangle;html=1;whiteSpace=wrap;connectable=0;overflow=hidden;fillColor=none;top=0;left=0;bottom=0;right=0;pointerEvents=1;" parent="dN4xW0M0NbgQwwogxyiH-230" vertex="1">
          <mxGeometry width="113" height="40" as="geometry">
            <mxRectangle width="113" height="40" as="alternateBounds" />
          </mxGeometry>
        </mxCell>
        <mxCell id="dN4xW0M0NbgQwwogxyiH-232" value="Идентификатор региона" style="shape=partialRectangle;html=1;whiteSpace=wrap;connectable=0;overflow=hidden;fillColor=none;top=0;left=0;bottom=0;right=0;pointerEvents=1;" parent="dN4xW0M0NbgQwwogxyiH-230" vertex="1">
          <mxGeometry x="113" width="172" height="40" as="geometry">
            <mxRectangle width="172" height="40" as="alternateBounds" />
          </mxGeometry>
        </mxCell>
        <mxCell id="dN4xW0M0NbgQwwogxyiH-233" value="INTEGER" style="shape=partialRectangle;html=1;whiteSpace=wrap;connectable=0;overflow=hidden;fillColor=none;top=0;left=0;bottom=0;right=0;pointerEvents=1;" parent="dN4xW0M0NbgQwwogxyiH-230" vertex="1">
          <mxGeometry x="285" width="116" height="40" as="geometry">
            <mxRectangle width="116" height="40" as="alternateBounds" />
          </mxGeometry>
        </mxCell>
        <mxCell id="dN4xW0M0NbgQwwogxyiH-234" value="REFERENCES &amp;nbsp;regions" style="shape=partialRectangle;html=1;whiteSpace=wrap;connectable=0;overflow=hidden;fillColor=none;top=0;left=0;bottom=0;right=0;pointerEvents=1;" parent="dN4xW0M0NbgQwwogxyiH-230" vertex="1">
          <mxGeometry x="401" width="169" height="40" as="geometry">
            <mxRectangle width="169" height="40" as="alternateBounds" />
          </mxGeometry>
        </mxCell>
        <mxCell id="dN4xW0M0NbgQwwogxyiH-235" value="" style="shape=partialRectangle;collapsible=0;dropTarget=0;pointerEvents=0;fillColor=none;top=0;left=0;bottom=0;right=0;points=[[0,0.5],[1,0.5]];portConstraint=eastwest;" parent="dN4xW0M0NbgQwwogxyiH-219" vertex="1">
          <mxGeometry y="130" width="570" height="40" as="geometry" />
        </mxCell>
        <mxCell id="dN4xW0M0NbgQwwogxyiH-236" value="MUSEUM_NM" style="shape=partialRectangle;html=1;whiteSpace=wrap;connectable=0;overflow=hidden;fillColor=none;top=0;left=0;bottom=0;right=0;pointerEvents=1;" parent="dN4xW0M0NbgQwwogxyiH-235" vertex="1">
          <mxGeometry width="113" height="40" as="geometry">
            <mxRectangle width="113" height="40" as="alternateBounds" />
          </mxGeometry>
        </mxCell>
        <mxCell id="dN4xW0M0NbgQwwogxyiH-237" value="Название музея" style="shape=partialRectangle;html=1;whiteSpace=wrap;connectable=0;overflow=hidden;fillColor=none;top=0;left=0;bottom=0;right=0;pointerEvents=1;" parent="dN4xW0M0NbgQwwogxyiH-235" vertex="1">
          <mxGeometry x="113" width="172" height="40" as="geometry">
            <mxRectangle width="172" height="40" as="alternateBounds" />
          </mxGeometry>
        </mxCell>
        <mxCell id="dN4xW0M0NbgQwwogxyiH-238" value="VARCHAR(255)" style="shape=partialRectangle;html=1;whiteSpace=wrap;connectable=0;overflow=hidden;fillColor=none;top=0;left=0;bottom=0;right=0;pointerEvents=1;" parent="dN4xW0M0NbgQwwogxyiH-235" vertex="1">
          <mxGeometry x="285" width="116" height="40" as="geometry">
            <mxRectangle width="116" height="40" as="alternateBounds" />
          </mxGeometry>
        </mxCell>
        <mxCell id="dN4xW0M0NbgQwwogxyiH-239" value="NOT NULL" style="shape=partialRectangle;html=1;whiteSpace=wrap;connectable=0;overflow=hidden;fillColor=none;top=0;left=0;bottom=0;right=0;pointerEvents=1;" parent="dN4xW0M0NbgQwwogxyiH-235" vertex="1">
          <mxGeometry x="401" width="169" height="40" as="geometry">
            <mxRectangle width="169" height="40" as="alternateBounds" />
          </mxGeometry>
        </mxCell>
        <mxCell id="dN4xW0M0NbgQwwogxyiH-240" value="" style="shape=partialRectangle;collapsible=0;dropTarget=0;pointerEvents=0;fillColor=none;top=0;left=0;bottom=0;right=0;points=[[0,0.5],[1,0.5]];portConstraint=eastwest;" parent="dN4xW0M0NbgQwwogxyiH-219" vertex="1">
          <mxGeometry y="170" width="570" height="40" as="geometry" />
        </mxCell>
        <mxCell id="dN4xW0M0NbgQwwogxyiH-241" value="MUSEUM_DESC" style="shape=partialRectangle;html=1;whiteSpace=wrap;connectable=0;overflow=hidden;fillColor=none;top=0;left=0;bottom=0;right=0;pointerEvents=1;" parent="dN4xW0M0NbgQwwogxyiH-240" vertex="1">
          <mxGeometry width="113" height="40" as="geometry">
            <mxRectangle width="113" height="40" as="alternateBounds" />
          </mxGeometry>
        </mxCell>
        <mxCell id="dN4xW0M0NbgQwwogxyiH-242" value="Описание музея" style="shape=partialRectangle;html=1;whiteSpace=wrap;connectable=0;overflow=hidden;fillColor=none;top=0;left=0;bottom=0;right=0;pointerEvents=1;" parent="dN4xW0M0NbgQwwogxyiH-240" vertex="1">
          <mxGeometry x="113" width="172" height="40" as="geometry">
            <mxRectangle width="172" height="40" as="alternateBounds" />
          </mxGeometry>
        </mxCell>
        <mxCell id="dN4xW0M0NbgQwwogxyiH-243" value="VARCHAR(1000)" style="shape=partialRectangle;html=1;whiteSpace=wrap;connectable=0;overflow=hidden;fillColor=none;top=0;left=0;bottom=0;right=0;pointerEvents=1;" parent="dN4xW0M0NbgQwwogxyiH-240" vertex="1">
          <mxGeometry x="285" width="116" height="40" as="geometry">
            <mxRectangle width="116" height="40" as="alternateBounds" />
          </mxGeometry>
        </mxCell>
        <mxCell id="dN4xW0M0NbgQwwogxyiH-244" value="" style="shape=partialRectangle;html=1;whiteSpace=wrap;connectable=0;overflow=hidden;fillColor=none;top=0;left=0;bottom=0;right=0;pointerEvents=1;" parent="dN4xW0M0NbgQwwogxyiH-240" vertex="1">
          <mxGeometry x="401" width="169" height="40" as="geometry">
            <mxRectangle width="169" height="40" as="alternateBounds" />
          </mxGeometry>
        </mxCell>
        <mxCell id="dN4xW0M0NbgQwwogxyiH-245" style="shape=partialRectangle;collapsible=0;dropTarget=0;pointerEvents=0;fillColor=none;top=0;left=0;bottom=0;right=0;points=[[0,0.5],[1,0.5]];portConstraint=eastwest;" parent="dN4xW0M0NbgQwwogxyiH-219" vertex="1">
          <mxGeometry y="210" width="570" height="40" as="geometry" />
        </mxCell>
        <mxCell id="dN4xW0M0NbgQwwogxyiH-246" value="ADDRESS" style="shape=partialRectangle;html=1;whiteSpace=wrap;connectable=0;overflow=hidden;fillColor=none;top=0;left=0;bottom=0;right=0;pointerEvents=1;" parent="dN4xW0M0NbgQwwogxyiH-245" vertex="1">
          <mxGeometry width="113" height="40" as="geometry">
            <mxRectangle width="113" height="40" as="alternateBounds" />
          </mxGeometry>
        </mxCell>
        <mxCell id="dN4xW0M0NbgQwwogxyiH-247" value="Адрес" style="shape=partialRectangle;html=1;whiteSpace=wrap;connectable=0;overflow=hidden;fillColor=none;top=0;left=0;bottom=0;right=0;pointerEvents=1;" parent="dN4xW0M0NbgQwwogxyiH-245" vertex="1">
          <mxGeometry x="113" width="172" height="40" as="geometry">
            <mxRectangle width="172" height="40" as="alternateBounds" />
          </mxGeometry>
        </mxCell>
        <mxCell id="dN4xW0M0NbgQwwogxyiH-248" value="VARCHAR(255)" style="shape=partialRectangle;html=1;whiteSpace=wrap;connectable=0;overflow=hidden;fillColor=none;top=0;left=0;bottom=0;right=0;pointerEvents=1;" parent="dN4xW0M0NbgQwwogxyiH-245" vertex="1">
          <mxGeometry x="285" width="116" height="40" as="geometry">
            <mxRectangle width="116" height="40" as="alternateBounds" />
          </mxGeometry>
        </mxCell>
        <mxCell id="dN4xW0M0NbgQwwogxyiH-249" style="shape=partialRectangle;html=1;whiteSpace=wrap;connectable=0;overflow=hidden;fillColor=none;top=0;left=0;bottom=0;right=0;pointerEvents=1;" parent="dN4xW0M0NbgQwwogxyiH-245" vertex="1">
          <mxGeometry x="401" width="169" height="40" as="geometry">
            <mxRectangle width="169" height="40" as="alternateBounds" />
          </mxGeometry>
        </mxCell>
        <mxCell id="dN4xW0M0NbgQwwogxyiH-250" style="shape=partialRectangle;collapsible=0;dropTarget=0;pointerEvents=0;fillColor=none;top=0;left=0;bottom=0;right=0;points=[[0,0.5],[1,0.5]];portConstraint=eastwest;" parent="dN4xW0M0NbgQwwogxyiH-219" vertex="1">
          <mxGeometry y="250" width="570" height="40" as="geometry" />
        </mxCell>
        <mxCell id="dN4xW0M0NbgQwwogxyiH-251" value="IS_PUBLISHED" style="shape=partialRectangle;html=1;whiteSpace=wrap;connectable=0;overflow=hidden;fillColor=none;top=0;left=0;bottom=0;right=0;pointerEvents=1;" parent="dN4xW0M0NbgQwwogxyiH-250" vertex="1">
          <mxGeometry width="113" height="40" as="geometry">
            <mxRectangle width="113" height="40" as="alternateBounds" />
          </mxGeometry>
        </mxCell>
        <mxCell id="dN4xW0M0NbgQwwogxyiH-252" value="Опубликован ли музей" style="shape=partialRectangle;html=1;whiteSpace=wrap;connectable=0;overflow=hidden;fillColor=none;top=0;left=0;bottom=0;right=0;pointerEvents=1;" parent="dN4xW0M0NbgQwwogxyiH-250" vertex="1">
          <mxGeometry x="113" width="172" height="40" as="geometry">
            <mxRectangle width="172" height="40" as="alternateBounds" />
          </mxGeometry>
        </mxCell>
        <mxCell id="dN4xW0M0NbgQwwogxyiH-253" value="BOOLEAN" style="shape=partialRectangle;html=1;whiteSpace=wrap;connectable=0;overflow=hidden;fillColor=none;top=0;left=0;bottom=0;right=0;pointerEvents=1;" parent="dN4xW0M0NbgQwwogxyiH-250" vertex="1">
          <mxGeometry x="285" width="116" height="40" as="geometry">
            <mxRectangle width="116" height="40" as="alternateBounds" />
          </mxGeometry>
        </mxCell>
        <mxCell id="dN4xW0M0NbgQwwogxyiH-254" value="&lt;span&gt;NOT NULL DEFAULT FALSE&lt;/span&gt;" style="shape=partialRectangle;html=1;whiteSpace=wrap;connectable=0;overflow=hidden;fillColor=none;top=0;left=0;bottom=0;right=0;pointerEvents=1;" parent="dN4xW0M0NbgQwwogxyiH-250" vertex="1">
          <mxGeometry x="401" width="169" height="40" as="geometry">
            <mxRectangle width="169" height="40" as="alternateBounds" />
          </mxGeometry>
        </mxCell>
        <mxCell id="dN4xW0M0NbgQwwogxyiH-260" value="" style="edgeStyle=orthogonalEdgeStyle;fontSize=12;html=1;endArrow=ERoneToMany;startArrow=ERmandOne;" parent="1" source="dN4xW0M0NbgQwwogxyiH-199" target="dN4xW0M0NbgQwwogxyiH-230" edge="1">
          <mxGeometry width="100" height="100" relative="1" as="geometry">
            <mxPoint x="-40" y="1100" as="sourcePoint" />
            <mxPoint x="80" y="1080" as="targetPoint" />
          </mxGeometry>
        </mxCell>
        <mxCell id="dN4xW0M0NbgQwwogxyiH-261" value="Ticket" style="shape=table;startSize=30;container=1;collapsible=0;childLayout=tableLayout;fillColor=#ffe6cc;strokeColor=#d79b00;" parent="1" vertex="1">
          <mxGeometry x="710" y="1910" width="590" height="230" as="geometry" />
        </mxCell>
        <mxCell id="dN4xW0M0NbgQwwogxyiH-262" value="" style="shape=partialRectangle;collapsible=0;dropTarget=0;pointerEvents=0;fillColor=none;top=0;left=0;bottom=0;right=0;points=[[0,0.5],[1,0.5]];portConstraint=eastwest;" parent="dN4xW0M0NbgQwwogxyiH-261" vertex="1">
          <mxGeometry y="30" width="590" height="22" as="geometry" />
        </mxCell>
        <mxCell id="dN4xW0M0NbgQwwogxyiH-263" value="Название" style="shape=partialRectangle;html=1;whiteSpace=wrap;connectable=0;overflow=hidden;fillColor=none;top=0;left=0;bottom=0;right=0;pointerEvents=1;" parent="dN4xW0M0NbgQwwogxyiH-262" vertex="1">
          <mxGeometry width="117" height="22" as="geometry">
            <mxRectangle width="117" height="22" as="alternateBounds" />
          </mxGeometry>
        </mxCell>
        <mxCell id="dN4xW0M0NbgQwwogxyiH-264" value="Описание" style="shape=partialRectangle;html=1;whiteSpace=wrap;connectable=0;overflow=hidden;fillColor=none;top=0;left=0;bottom=0;right=0;pointerEvents=1;" parent="dN4xW0M0NbgQwwogxyiH-262" vertex="1">
          <mxGeometry x="117" width="178" height="22" as="geometry">
            <mxRectangle width="178" height="22" as="alternateBounds" />
          </mxGeometry>
        </mxCell>
        <mxCell id="dN4xW0M0NbgQwwogxyiH-265" value="Тип данных" style="shape=partialRectangle;html=1;whiteSpace=wrap;connectable=0;overflow=hidden;fillColor=none;top=0;left=0;bottom=0;right=0;pointerEvents=1;" parent="dN4xW0M0NbgQwwogxyiH-262" vertex="1">
          <mxGeometry x="295" width="120" height="22" as="geometry">
            <mxRectangle width="120" height="22" as="alternateBounds" />
          </mxGeometry>
        </mxCell>
        <mxCell id="dN4xW0M0NbgQwwogxyiH-266" value="Ограничение" style="shape=partialRectangle;html=1;whiteSpace=wrap;connectable=0;overflow=hidden;fillColor=none;top=0;left=0;bottom=0;right=0;pointerEvents=1;" parent="dN4xW0M0NbgQwwogxyiH-262" vertex="1">
          <mxGeometry x="415" width="175" height="22" as="geometry">
            <mxRectangle width="175" height="22" as="alternateBounds" />
          </mxGeometry>
        </mxCell>
        <mxCell id="dN4xW0M0NbgQwwogxyiH-267" value="" style="shape=partialRectangle;collapsible=0;dropTarget=0;pointerEvents=0;fillColor=none;top=0;left=0;bottom=0;right=0;points=[[0,0.5],[1,0.5]];portConstraint=eastwest;" parent="dN4xW0M0NbgQwwogxyiH-261" vertex="1">
          <mxGeometry y="52" width="590" height="45" as="geometry" />
        </mxCell>
        <mxCell id="dN4xW0M0NbgQwwogxyiH-268" value="TICKET_ID" style="shape=partialRectangle;html=1;whiteSpace=wrap;connectable=0;overflow=hidden;fillColor=none;top=0;left=0;bottom=0;right=0;pointerEvents=1;" parent="dN4xW0M0NbgQwwogxyiH-267" vertex="1">
          <mxGeometry width="117" height="45" as="geometry">
            <mxRectangle width="117" height="45" as="alternateBounds" />
          </mxGeometry>
        </mxCell>
        <mxCell id="dN4xW0M0NbgQwwogxyiH-269" value="Идентификатор билета&amp;nbsp;" style="shape=partialRectangle;html=1;whiteSpace=wrap;connectable=0;overflow=hidden;fillColor=none;top=0;left=0;bottom=0;right=0;pointerEvents=1;" parent="dN4xW0M0NbgQwwogxyiH-267" vertex="1">
          <mxGeometry x="117" width="178" height="45" as="geometry">
            <mxRectangle width="178" height="45" as="alternateBounds" />
          </mxGeometry>
        </mxCell>
        <mxCell id="dN4xW0M0NbgQwwogxyiH-270" value="SERIAL" style="shape=partialRectangle;html=1;whiteSpace=wrap;connectable=0;overflow=hidden;fillColor=none;top=0;left=0;bottom=0;right=0;pointerEvents=1;" parent="dN4xW0M0NbgQwwogxyiH-267" vertex="1">
          <mxGeometry x="295" width="120" height="45" as="geometry">
            <mxRectangle width="120" height="45" as="alternateBounds" />
          </mxGeometry>
        </mxCell>
        <mxCell id="dN4xW0M0NbgQwwogxyiH-271" value="PRIMARY KEY" style="shape=partialRectangle;html=1;whiteSpace=wrap;connectable=0;overflow=hidden;fillColor=none;top=0;left=0;bottom=0;right=0;pointerEvents=1;" parent="dN4xW0M0NbgQwwogxyiH-267" vertex="1">
          <mxGeometry x="415" width="175" height="45" as="geometry">
            <mxRectangle width="175" height="45" as="alternateBounds" />
          </mxGeometry>
        </mxCell>
        <mxCell id="dN4xW0M0NbgQwwogxyiH-272" value="" style="shape=partialRectangle;collapsible=0;dropTarget=0;pointerEvents=0;fillColor=none;top=0;left=0;bottom=0;right=0;points=[[0,0.5],[1,0.5]];portConstraint=eastwest;" parent="dN4xW0M0NbgQwwogxyiH-261" vertex="1">
          <mxGeometry y="97" width="590" height="44" as="geometry" />
        </mxCell>
        <mxCell id="dN4xW0M0NbgQwwogxyiH-273" value="MUSEUM_ID" style="shape=partialRectangle;html=1;whiteSpace=wrap;connectable=0;overflow=hidden;fillColor=none;top=0;left=0;bottom=0;right=0;pointerEvents=1;" parent="dN4xW0M0NbgQwwogxyiH-272" vertex="1">
          <mxGeometry width="117" height="44" as="geometry">
            <mxRectangle width="117" height="44" as="alternateBounds" />
          </mxGeometry>
        </mxCell>
        <mxCell id="dN4xW0M0NbgQwwogxyiH-274" value="Идентификатор музея" style="shape=partialRectangle;html=1;whiteSpace=wrap;connectable=0;overflow=hidden;fillColor=none;top=0;left=0;bottom=0;right=0;pointerEvents=1;" parent="dN4xW0M0NbgQwwogxyiH-272" vertex="1">
          <mxGeometry x="117" width="178" height="44" as="geometry">
            <mxRectangle width="178" height="44" as="alternateBounds" />
          </mxGeometry>
        </mxCell>
        <mxCell id="dN4xW0M0NbgQwwogxyiH-275" value="INTEGER" style="shape=partialRectangle;html=1;whiteSpace=wrap;connectable=0;overflow=hidden;fillColor=none;top=0;left=0;bottom=0;right=0;pointerEvents=1;" parent="dN4xW0M0NbgQwwogxyiH-272" vertex="1">
          <mxGeometry x="295" width="120" height="44" as="geometry">
            <mxRectangle width="120" height="44" as="alternateBounds" />
          </mxGeometry>
        </mxCell>
        <mxCell id="dN4xW0M0NbgQwwogxyiH-276" value="REFERENCES &amp;nbsp;museums" style="shape=partialRectangle;html=1;whiteSpace=wrap;connectable=0;overflow=hidden;fillColor=none;top=0;left=0;bottom=0;right=0;pointerEvents=1;" parent="dN4xW0M0NbgQwwogxyiH-272" vertex="1">
          <mxGeometry x="415" width="175" height="44" as="geometry">
            <mxRectangle width="175" height="44" as="alternateBounds" />
          </mxGeometry>
        </mxCell>
        <mxCell id="dN4xW0M0NbgQwwogxyiH-277" value="" style="shape=partialRectangle;collapsible=0;dropTarget=0;pointerEvents=0;fillColor=none;top=0;left=0;bottom=0;right=0;points=[[0,0.5],[1,0.5]];portConstraint=eastwest;" parent="dN4xW0M0NbgQwwogxyiH-261" vertex="1">
          <mxGeometry y="141" width="590" height="45" as="geometry" />
        </mxCell>
        <mxCell id="dN4xW0M0NbgQwwogxyiH-278" value="TICKET_DTTM" style="shape=partialRectangle;html=1;whiteSpace=wrap;connectable=0;overflow=hidden;fillColor=none;top=0;left=0;bottom=0;right=0;pointerEvents=1;" parent="dN4xW0M0NbgQwwogxyiH-277" vertex="1">
          <mxGeometry width="117" height="45" as="geometry">
            <mxRectangle width="117" height="45" as="alternateBounds" />
          </mxGeometry>
        </mxCell>
        <mxCell id="dN4xW0M0NbgQwwogxyiH-279" value="Время билета" style="shape=partialRectangle;html=1;whiteSpace=wrap;connectable=0;overflow=hidden;fillColor=none;top=0;left=0;bottom=0;right=0;pointerEvents=1;" parent="dN4xW0M0NbgQwwogxyiH-277" vertex="1">
          <mxGeometry x="117" width="178" height="45" as="geometry">
            <mxRectangle width="178" height="45" as="alternateBounds" />
          </mxGeometry>
        </mxCell>
        <mxCell id="dN4xW0M0NbgQwwogxyiH-280" value="TIMESTAMP" style="shape=partialRectangle;html=1;whiteSpace=wrap;connectable=0;overflow=hidden;fillColor=none;top=0;left=0;bottom=0;right=0;pointerEvents=1;" parent="dN4xW0M0NbgQwwogxyiH-277" vertex="1">
          <mxGeometry x="295" width="120" height="45" as="geometry">
            <mxRectangle width="120" height="45" as="alternateBounds" />
          </mxGeometry>
        </mxCell>
        <mxCell id="dN4xW0M0NbgQwwogxyiH-281" value="NOT NULL" style="shape=partialRectangle;html=1;whiteSpace=wrap;connectable=0;overflow=hidden;fillColor=none;top=0;left=0;bottom=0;right=0;pointerEvents=1;" parent="dN4xW0M0NbgQwwogxyiH-277" vertex="1">
          <mxGeometry x="415" width="175" height="45" as="geometry">
            <mxRectangle width="175" height="45" as="alternateBounds" />
          </mxGeometry>
        </mxCell>
        <mxCell id="dN4xW0M0NbgQwwogxyiH-282" value="" style="shape=partialRectangle;collapsible=0;dropTarget=0;pointerEvents=0;fillColor=none;top=0;left=0;bottom=0;right=0;points=[[0,0.5],[1,0.5]];portConstraint=eastwest;" parent="dN4xW0M0NbgQwwogxyiH-261" vertex="1">
          <mxGeometry y="186" width="590" height="44" as="geometry" />
        </mxCell>
        <mxCell id="dN4xW0M0NbgQwwogxyiH-283" value="PRICE_AMT" style="shape=partialRectangle;html=1;whiteSpace=wrap;connectable=0;overflow=hidden;fillColor=none;top=0;left=0;bottom=0;right=0;pointerEvents=1;" parent="dN4xW0M0NbgQwwogxyiH-282" vertex="1">
          <mxGeometry width="117" height="44" as="geometry">
            <mxRectangle width="117" height="44" as="alternateBounds" />
          </mxGeometry>
        </mxCell>
        <mxCell id="dN4xW0M0NbgQwwogxyiH-284" value="Стоимость билета" style="shape=partialRectangle;html=1;whiteSpace=wrap;connectable=0;overflow=hidden;fillColor=none;top=0;left=0;bottom=0;right=0;pointerEvents=1;" parent="dN4xW0M0NbgQwwogxyiH-282" vertex="1">
          <mxGeometry x="117" width="178" height="44" as="geometry">
            <mxRectangle width="178" height="44" as="alternateBounds" />
          </mxGeometry>
        </mxCell>
        <mxCell id="dN4xW0M0NbgQwwogxyiH-285" value="INTEGER" style="shape=partialRectangle;html=1;whiteSpace=wrap;connectable=0;overflow=hidden;fillColor=none;top=0;left=0;bottom=0;right=0;pointerEvents=1;" parent="dN4xW0M0NbgQwwogxyiH-282" vertex="1">
          <mxGeometry x="295" width="120" height="44" as="geometry">
            <mxRectangle width="120" height="44" as="alternateBounds" />
          </mxGeometry>
        </mxCell>
        <mxCell id="dN4xW0M0NbgQwwogxyiH-286" value="NOT NULL CONSTRAINT positive_price CHECK (price_amt &amp;gt;= 0)" style="shape=partialRectangle;html=1;whiteSpace=wrap;connectable=0;overflow=hidden;fillColor=none;top=0;left=0;bottom=0;right=0;pointerEvents=1;" parent="dN4xW0M0NbgQwwogxyiH-282" vertex="1">
          <mxGeometry x="415" width="175" height="44" as="geometry">
            <mxRectangle width="175" height="44" as="alternateBounds" />
          </mxGeometry>
        </mxCell>
        <mxCell id="dN4xW0M0NbgQwwogxyiH-304" value="Deal" style="shape=table;startSize=30;container=1;collapsible=0;childLayout=tableLayout;fillColor=#ffe6cc;strokeColor=#d79b00;" parent="1" vertex="1">
          <mxGeometry x="-30" y="824" width="590" height="230" as="geometry" />
        </mxCell>
        <mxCell id="dN4xW0M0NbgQwwogxyiH-305" value="" style="shape=partialRectangle;collapsible=0;dropTarget=0;pointerEvents=0;fillColor=none;top=0;left=0;bottom=0;right=0;points=[[0,0.5],[1,0.5]];portConstraint=eastwest;" parent="dN4xW0M0NbgQwwogxyiH-304" vertex="1">
          <mxGeometry y="30" width="590" height="22" as="geometry" />
        </mxCell>
        <mxCell id="dN4xW0M0NbgQwwogxyiH-306" value="Название" style="shape=partialRectangle;html=1;whiteSpace=wrap;connectable=0;overflow=hidden;fillColor=none;top=0;left=0;bottom=0;right=0;pointerEvents=1;" parent="dN4xW0M0NbgQwwogxyiH-305" vertex="1">
          <mxGeometry width="117" height="22" as="geometry">
            <mxRectangle width="117" height="22" as="alternateBounds" />
          </mxGeometry>
        </mxCell>
        <mxCell id="dN4xW0M0NbgQwwogxyiH-307" value="Описание" style="shape=partialRectangle;html=1;whiteSpace=wrap;connectable=0;overflow=hidden;fillColor=none;top=0;left=0;bottom=0;right=0;pointerEvents=1;" parent="dN4xW0M0NbgQwwogxyiH-305" vertex="1">
          <mxGeometry x="117" width="178" height="22" as="geometry">
            <mxRectangle width="178" height="22" as="alternateBounds" />
          </mxGeometry>
        </mxCell>
        <mxCell id="dN4xW0M0NbgQwwogxyiH-308" value="Тип данных" style="shape=partialRectangle;html=1;whiteSpace=wrap;connectable=0;overflow=hidden;fillColor=none;top=0;left=0;bottom=0;right=0;pointerEvents=1;" parent="dN4xW0M0NbgQwwogxyiH-305" vertex="1">
          <mxGeometry x="295" width="120" height="22" as="geometry">
            <mxRectangle width="120" height="22" as="alternateBounds" />
          </mxGeometry>
        </mxCell>
        <mxCell id="dN4xW0M0NbgQwwogxyiH-309" value="Ограничение" style="shape=partialRectangle;html=1;whiteSpace=wrap;connectable=0;overflow=hidden;fillColor=none;top=0;left=0;bottom=0;right=0;pointerEvents=1;" parent="dN4xW0M0NbgQwwogxyiH-305" vertex="1">
          <mxGeometry x="415" width="175" height="22" as="geometry">
            <mxRectangle width="175" height="22" as="alternateBounds" />
          </mxGeometry>
        </mxCell>
        <mxCell id="dN4xW0M0NbgQwwogxyiH-310" value="" style="shape=partialRectangle;collapsible=0;dropTarget=0;pointerEvents=0;fillColor=none;top=0;left=0;bottom=0;right=0;points=[[0,0.5],[1,0.5]];portConstraint=eastwest;" parent="dN4xW0M0NbgQwwogxyiH-304" vertex="1">
          <mxGeometry y="52" width="590" height="45" as="geometry" />
        </mxCell>
        <mxCell id="dN4xW0M0NbgQwwogxyiH-311" value="DEAL_ID" style="shape=partialRectangle;html=1;whiteSpace=wrap;connectable=0;overflow=hidden;fillColor=none;top=0;left=0;bottom=0;right=0;pointerEvents=1;" parent="dN4xW0M0NbgQwwogxyiH-310" vertex="1">
          <mxGeometry width="117" height="45" as="geometry">
            <mxRectangle width="117" height="45" as="alternateBounds" />
          </mxGeometry>
        </mxCell>
        <mxCell id="dN4xW0M0NbgQwwogxyiH-312" value="Идентификатор договора&amp;nbsp;" style="shape=partialRectangle;html=1;whiteSpace=wrap;connectable=0;overflow=hidden;fillColor=none;top=0;left=0;bottom=0;right=0;pointerEvents=1;" parent="dN4xW0M0NbgQwwogxyiH-310" vertex="1">
          <mxGeometry x="117" width="178" height="45" as="geometry">
            <mxRectangle width="178" height="45" as="alternateBounds" />
          </mxGeometry>
        </mxCell>
        <mxCell id="dN4xW0M0NbgQwwogxyiH-313" value="SERIAL" style="shape=partialRectangle;html=1;whiteSpace=wrap;connectable=0;overflow=hidden;fillColor=none;top=0;left=0;bottom=0;right=0;pointerEvents=1;" parent="dN4xW0M0NbgQwwogxyiH-310" vertex="1">
          <mxGeometry x="295" width="120" height="45" as="geometry">
            <mxRectangle width="120" height="45" as="alternateBounds" />
          </mxGeometry>
        </mxCell>
        <mxCell id="dN4xW0M0NbgQwwogxyiH-314" value="PRIMARY KEY" style="shape=partialRectangle;html=1;whiteSpace=wrap;connectable=0;overflow=hidden;fillColor=none;top=0;left=0;bottom=0;right=0;pointerEvents=1;" parent="dN4xW0M0NbgQwwogxyiH-310" vertex="1">
          <mxGeometry x="415" width="175" height="45" as="geometry">
            <mxRectangle width="175" height="45" as="alternateBounds" />
          </mxGeometry>
        </mxCell>
        <mxCell id="dN4xW0M0NbgQwwogxyiH-315" value="" style="shape=partialRectangle;collapsible=0;dropTarget=0;pointerEvents=0;fillColor=none;top=0;left=0;bottom=0;right=0;points=[[0,0.5],[1,0.5]];portConstraint=eastwest;" parent="dN4xW0M0NbgQwwogxyiH-304" vertex="1">
          <mxGeometry y="97" width="590" height="44" as="geometry" />
        </mxCell>
        <mxCell id="dN4xW0M0NbgQwwogxyiH-316" value="INN" style="shape=partialRectangle;html=1;whiteSpace=wrap;connectable=0;overflow=hidden;fillColor=none;top=0;left=0;bottom=0;right=0;pointerEvents=1;" parent="dN4xW0M0NbgQwwogxyiH-315" vertex="1">
          <mxGeometry width="117" height="44" as="geometry">
            <mxRectangle width="117" height="44" as="alternateBounds" />
          </mxGeometry>
        </mxCell>
        <mxCell id="dN4xW0M0NbgQwwogxyiH-317" value="ИНН компании" style="shape=partialRectangle;html=1;whiteSpace=wrap;connectable=0;overflow=hidden;fillColor=none;top=0;left=0;bottom=0;right=0;pointerEvents=1;" parent="dN4xW0M0NbgQwwogxyiH-315" vertex="1">
          <mxGeometry x="117" width="178" height="44" as="geometry">
            <mxRectangle width="178" height="44" as="alternateBounds" />
          </mxGeometry>
        </mxCell>
        <mxCell id="dN4xW0M0NbgQwwogxyiH-318" value="CHAR(12)" style="shape=partialRectangle;html=1;whiteSpace=wrap;connectable=0;overflow=hidden;fillColor=none;top=0;left=0;bottom=0;right=0;pointerEvents=1;" parent="dN4xW0M0NbgQwwogxyiH-315" vertex="1">
          <mxGeometry x="295" width="120" height="44" as="geometry">
            <mxRectangle width="120" height="44" as="alternateBounds" />
          </mxGeometry>
        </mxCell>
        <mxCell id="dN4xW0M0NbgQwwogxyiH-319" value="REFERENCES &amp;nbsp;companies" style="shape=partialRectangle;html=1;whiteSpace=wrap;connectable=0;overflow=hidden;fillColor=none;top=0;left=0;bottom=0;right=0;pointerEvents=1;" parent="dN4xW0M0NbgQwwogxyiH-315" vertex="1">
          <mxGeometry x="415" width="175" height="44" as="geometry">
            <mxRectangle width="175" height="44" as="alternateBounds" />
          </mxGeometry>
        </mxCell>
        <mxCell id="dN4xW0M0NbgQwwogxyiH-320" value="" style="shape=partialRectangle;collapsible=0;dropTarget=0;pointerEvents=0;fillColor=none;top=0;left=0;bottom=0;right=0;points=[[0,0.5],[1,0.5]];portConstraint=eastwest;" parent="dN4xW0M0NbgQwwogxyiH-304" vertex="1">
          <mxGeometry y="141" width="590" height="45" as="geometry" />
        </mxCell>
        <mxCell id="dN4xW0M0NbgQwwogxyiH-321" value="MUSEUM_ID" style="shape=partialRectangle;html=1;whiteSpace=wrap;connectable=0;overflow=hidden;fillColor=none;top=0;left=0;bottom=0;right=0;pointerEvents=1;" parent="dN4xW0M0NbgQwwogxyiH-320" vertex="1">
          <mxGeometry width="117" height="45" as="geometry">
            <mxRectangle width="117" height="45" as="alternateBounds" />
          </mxGeometry>
        </mxCell>
        <mxCell id="dN4xW0M0NbgQwwogxyiH-322" value="Идентификатор музея" style="shape=partialRectangle;html=1;whiteSpace=wrap;connectable=0;overflow=hidden;fillColor=none;top=0;left=0;bottom=0;right=0;pointerEvents=1;" parent="dN4xW0M0NbgQwwogxyiH-320" vertex="1">
          <mxGeometry x="117" width="178" height="45" as="geometry">
            <mxRectangle width="178" height="45" as="alternateBounds" />
          </mxGeometry>
        </mxCell>
        <mxCell id="dN4xW0M0NbgQwwogxyiH-323" value="INTEGER" style="shape=partialRectangle;html=1;whiteSpace=wrap;connectable=0;overflow=hidden;fillColor=none;top=0;left=0;bottom=0;right=0;pointerEvents=1;" parent="dN4xW0M0NbgQwwogxyiH-320" vertex="1">
          <mxGeometry x="295" width="120" height="45" as="geometry">
            <mxRectangle width="120" height="45" as="alternateBounds" />
          </mxGeometry>
        </mxCell>
        <mxCell id="dN4xW0M0NbgQwwogxyiH-324" value="REFERENCES museums" style="shape=partialRectangle;html=1;whiteSpace=wrap;connectable=0;overflow=hidden;fillColor=none;top=0;left=0;bottom=0;right=0;pointerEvents=1;" parent="dN4xW0M0NbgQwwogxyiH-320" vertex="1">
          <mxGeometry x="415" width="175" height="45" as="geometry">
            <mxRectangle width="175" height="45" as="alternateBounds" />
          </mxGeometry>
        </mxCell>
        <mxCell id="dN4xW0M0NbgQwwogxyiH-325" value="" style="shape=partialRectangle;collapsible=0;dropTarget=0;pointerEvents=0;fillColor=none;top=0;left=0;bottom=0;right=0;points=[[0,0.5],[1,0.5]];portConstraint=eastwest;" parent="dN4xW0M0NbgQwwogxyiH-304" vertex="1">
          <mxGeometry y="186" width="590" height="44" as="geometry" />
        </mxCell>
        <mxCell id="dN4xW0M0NbgQwwogxyiH-326" value="DEAL_DTTM" style="shape=partialRectangle;html=1;whiteSpace=wrap;connectable=0;overflow=hidden;fillColor=none;top=0;left=0;bottom=0;right=0;pointerEvents=1;" parent="dN4xW0M0NbgQwwogxyiH-325" vertex="1">
          <mxGeometry width="117" height="44" as="geometry">
            <mxRectangle width="117" height="44" as="alternateBounds" />
          </mxGeometry>
        </mxCell>
        <mxCell id="dN4xW0M0NbgQwwogxyiH-327" value="Дата подписания договора" style="shape=partialRectangle;html=1;whiteSpace=wrap;connectable=0;overflow=hidden;fillColor=none;top=0;left=0;bottom=0;right=0;pointerEvents=1;" parent="dN4xW0M0NbgQwwogxyiH-325" vertex="1">
          <mxGeometry x="117" width="178" height="44" as="geometry">
            <mxRectangle width="178" height="44" as="alternateBounds" />
          </mxGeometry>
        </mxCell>
        <mxCell id="dN4xW0M0NbgQwwogxyiH-328" value="TIMESTAMP" style="shape=partialRectangle;html=1;whiteSpace=wrap;connectable=0;overflow=hidden;fillColor=none;top=0;left=0;bottom=0;right=0;pointerEvents=1;" parent="dN4xW0M0NbgQwwogxyiH-325" vertex="1">
          <mxGeometry x="295" width="120" height="44" as="geometry">
            <mxRectangle width="120" height="44" as="alternateBounds" />
          </mxGeometry>
        </mxCell>
        <mxCell id="dN4xW0M0NbgQwwogxyiH-329" value="" style="shape=partialRectangle;html=1;whiteSpace=wrap;connectable=0;overflow=hidden;fillColor=none;top=0;left=0;bottom=0;right=0;pointerEvents=1;" parent="dN4xW0M0NbgQwwogxyiH-325" vertex="1">
          <mxGeometry x="415" width="175" height="44" as="geometry">
            <mxRectangle width="175" height="44" as="alternateBounds" />
          </mxGeometry>
        </mxCell>
        <mxCell id="dN4xW0M0NbgQwwogxyiH-331" value="Company" style="shape=table;startSize=30;container=1;collapsible=0;childLayout=tableLayout;fillColor=#ffe6cc;strokeColor=#d79b00;" parent="1" vertex="1">
          <mxGeometry x="675" y="758" width="660" height="362" as="geometry" />
        </mxCell>
        <mxCell id="dN4xW0M0NbgQwwogxyiH-332" value="" style="shape=partialRectangle;collapsible=0;dropTarget=0;pointerEvents=0;fillColor=none;top=0;left=0;bottom=0;right=0;points=[[0,0.5],[1,0.5]];portConstraint=eastwest;" parent="dN4xW0M0NbgQwwogxyiH-331" vertex="1">
          <mxGeometry y="30" width="660" height="22" as="geometry" />
        </mxCell>
        <mxCell id="dN4xW0M0NbgQwwogxyiH-333" value="Название" style="shape=partialRectangle;html=1;whiteSpace=wrap;connectable=0;overflow=hidden;fillColor=none;top=0;left=0;bottom=0;right=0;pointerEvents=1;" parent="dN4xW0M0NbgQwwogxyiH-332" vertex="1">
          <mxGeometry width="131" height="22" as="geometry">
            <mxRectangle width="131" height="22" as="alternateBounds" />
          </mxGeometry>
        </mxCell>
        <mxCell id="dN4xW0M0NbgQwwogxyiH-334" value="Описание" style="shape=partialRectangle;html=1;whiteSpace=wrap;connectable=0;overflow=hidden;fillColor=none;top=0;left=0;bottom=0;right=0;pointerEvents=1;" parent="dN4xW0M0NbgQwwogxyiH-332" vertex="1">
          <mxGeometry x="131" width="199" height="22" as="geometry">
            <mxRectangle width="199" height="22" as="alternateBounds" />
          </mxGeometry>
        </mxCell>
        <mxCell id="dN4xW0M0NbgQwwogxyiH-335" value="Тип данных" style="shape=partialRectangle;html=1;whiteSpace=wrap;connectable=0;overflow=hidden;fillColor=none;top=0;left=0;bottom=0;right=0;pointerEvents=1;" parent="dN4xW0M0NbgQwwogxyiH-332" vertex="1">
          <mxGeometry x="330" width="134" height="22" as="geometry">
            <mxRectangle width="134" height="22" as="alternateBounds" />
          </mxGeometry>
        </mxCell>
        <mxCell id="dN4xW0M0NbgQwwogxyiH-336" value="Ограничение" style="shape=partialRectangle;html=1;whiteSpace=wrap;connectable=0;overflow=hidden;fillColor=none;top=0;left=0;bottom=0;right=0;pointerEvents=1;" parent="dN4xW0M0NbgQwwogxyiH-332" vertex="1">
          <mxGeometry x="464" width="196" height="22" as="geometry">
            <mxRectangle width="196" height="22" as="alternateBounds" />
          </mxGeometry>
        </mxCell>
        <mxCell id="dN4xW0M0NbgQwwogxyiH-337" value="" style="shape=partialRectangle;collapsible=0;dropTarget=0;pointerEvents=0;fillColor=none;top=0;left=0;bottom=0;right=0;points=[[0,0.5],[1,0.5]];portConstraint=eastwest;" parent="dN4xW0M0NbgQwwogxyiH-331" vertex="1">
          <mxGeometry y="52" width="660" height="45" as="geometry" />
        </mxCell>
        <mxCell id="dN4xW0M0NbgQwwogxyiH-338" value="INN" style="shape=partialRectangle;html=1;whiteSpace=wrap;connectable=0;overflow=hidden;fillColor=none;top=0;left=0;bottom=0;right=0;pointerEvents=1;" parent="dN4xW0M0NbgQwwogxyiH-337" vertex="1">
          <mxGeometry width="131" height="45" as="geometry">
            <mxRectangle width="131" height="45" as="alternateBounds" />
          </mxGeometry>
        </mxCell>
        <mxCell id="dN4xW0M0NbgQwwogxyiH-339" value="ИНН компании" style="shape=partialRectangle;html=1;whiteSpace=wrap;connectable=0;overflow=hidden;fillColor=none;top=0;left=0;bottom=0;right=0;pointerEvents=1;" parent="dN4xW0M0NbgQwwogxyiH-337" vertex="1">
          <mxGeometry x="131" width="199" height="45" as="geometry">
            <mxRectangle width="199" height="45" as="alternateBounds" />
          </mxGeometry>
        </mxCell>
        <mxCell id="dN4xW0M0NbgQwwogxyiH-340" value="SERIAL" style="shape=partialRectangle;html=1;whiteSpace=wrap;connectable=0;overflow=hidden;fillColor=none;top=0;left=0;bottom=0;right=0;pointerEvents=1;" parent="dN4xW0M0NbgQwwogxyiH-337" vertex="1">
          <mxGeometry x="330" width="134" height="45" as="geometry">
            <mxRectangle width="134" height="45" as="alternateBounds" />
          </mxGeometry>
        </mxCell>
        <mxCell id="dN4xW0M0NbgQwwogxyiH-341" value="PRIMARY KEY" style="shape=partialRectangle;html=1;whiteSpace=wrap;connectable=0;overflow=hidden;fillColor=none;top=0;left=0;bottom=0;right=0;pointerEvents=1;" parent="dN4xW0M0NbgQwwogxyiH-337" vertex="1">
          <mxGeometry x="464" width="196" height="45" as="geometry">
            <mxRectangle width="196" height="45" as="alternateBounds" />
          </mxGeometry>
        </mxCell>
        <mxCell id="dN4xW0M0NbgQwwogxyiH-342" value="" style="shape=partialRectangle;collapsible=0;dropTarget=0;pointerEvents=0;fillColor=none;top=0;left=0;bottom=0;right=0;points=[[0,0.5],[1,0.5]];portConstraint=eastwest;" parent="dN4xW0M0NbgQwwogxyiH-331" vertex="1">
          <mxGeometry y="97" width="660" height="44" as="geometry" />
        </mxCell>
        <mxCell id="dN4xW0M0NbgQwwogxyiH-343" value="VALID_FROM_DTTM" style="shape=partialRectangle;html=1;whiteSpace=wrap;connectable=0;overflow=hidden;fillColor=none;top=0;left=0;bottom=0;right=0;pointerEvents=1;" parent="dN4xW0M0NbgQwwogxyiH-342" vertex="1">
          <mxGeometry width="131" height="44" as="geometry">
            <mxRectangle width="131" height="44" as="alternateBounds" />
          </mxGeometry>
        </mxCell>
        <mxCell id="dN4xW0M0NbgQwwogxyiH-344" value="Дата начала текущей версии" style="shape=partialRectangle;html=1;whiteSpace=wrap;connectable=0;overflow=hidden;fillColor=none;top=0;left=0;bottom=0;right=0;pointerEvents=1;" parent="dN4xW0M0NbgQwwogxyiH-342" vertex="1">
          <mxGeometry x="131" width="199" height="44" as="geometry">
            <mxRectangle width="199" height="44" as="alternateBounds" />
          </mxGeometry>
        </mxCell>
        <mxCell id="dN4xW0M0NbgQwwogxyiH-345" value="TIMESTAMP" style="shape=partialRectangle;html=1;whiteSpace=wrap;connectable=0;overflow=hidden;fillColor=none;top=0;left=0;bottom=0;right=0;pointerEvents=1;" parent="dN4xW0M0NbgQwwogxyiH-342" vertex="1">
          <mxGeometry x="330" width="134" height="44" as="geometry">
            <mxRectangle width="134" height="44" as="alternateBounds" />
          </mxGeometry>
        </mxCell>
        <mxCell id="dN4xW0M0NbgQwwogxyiH-346" value="" style="shape=partialRectangle;html=1;whiteSpace=wrap;connectable=0;overflow=hidden;fillColor=none;top=0;left=0;bottom=0;right=0;pointerEvents=1;" parent="dN4xW0M0NbgQwwogxyiH-342" vertex="1">
          <mxGeometry x="464" width="196" height="44" as="geometry">
            <mxRectangle width="196" height="44" as="alternateBounds" />
          </mxGeometry>
        </mxCell>
        <mxCell id="dN4xW0M0NbgQwwogxyiH-347" value="" style="shape=partialRectangle;collapsible=0;dropTarget=0;pointerEvents=0;fillColor=none;top=0;left=0;bottom=0;right=0;points=[[0,0.5],[1,0.5]];portConstraint=eastwest;" parent="dN4xW0M0NbgQwwogxyiH-331" vertex="1">
          <mxGeometry y="141" width="660" height="45" as="geometry" />
        </mxCell>
        <mxCell id="dN4xW0M0NbgQwwogxyiH-348" value="COMPANY_NM" style="shape=partialRectangle;html=1;whiteSpace=wrap;connectable=0;overflow=hidden;fillColor=none;top=0;left=0;bottom=0;right=0;pointerEvents=1;" parent="dN4xW0M0NbgQwwogxyiH-347" vertex="1">
          <mxGeometry width="131" height="45" as="geometry">
            <mxRectangle width="131" height="45" as="alternateBounds" />
          </mxGeometry>
        </mxCell>
        <mxCell id="dN4xW0M0NbgQwwogxyiH-349" value="Название компании" style="shape=partialRectangle;html=1;whiteSpace=wrap;connectable=0;overflow=hidden;fillColor=none;top=0;left=0;bottom=0;right=0;pointerEvents=1;" parent="dN4xW0M0NbgQwwogxyiH-347" vertex="1">
          <mxGeometry x="131" width="199" height="45" as="geometry">
            <mxRectangle width="199" height="45" as="alternateBounds" />
          </mxGeometry>
        </mxCell>
        <mxCell id="dN4xW0M0NbgQwwogxyiH-350" value="VARCHAR(255)" style="shape=partialRectangle;html=1;whiteSpace=wrap;connectable=0;overflow=hidden;fillColor=none;top=0;left=0;bottom=0;right=0;pointerEvents=1;" parent="dN4xW0M0NbgQwwogxyiH-347" vertex="1">
          <mxGeometry x="330" width="134" height="45" as="geometry">
            <mxRectangle width="134" height="45" as="alternateBounds" />
          </mxGeometry>
        </mxCell>
        <mxCell id="dN4xW0M0NbgQwwogxyiH-351" value="" style="shape=partialRectangle;html=1;whiteSpace=wrap;connectable=0;overflow=hidden;fillColor=none;top=0;left=0;bottom=0;right=0;pointerEvents=1;" parent="dN4xW0M0NbgQwwogxyiH-347" vertex="1">
          <mxGeometry x="464" width="196" height="45" as="geometry">
            <mxRectangle width="196" height="45" as="alternateBounds" />
          </mxGeometry>
        </mxCell>
        <mxCell id="dN4xW0M0NbgQwwogxyiH-352" value="" style="shape=partialRectangle;collapsible=0;dropTarget=0;pointerEvents=0;fillColor=none;top=0;left=0;bottom=0;right=0;points=[[0,0.5],[1,0.5]];portConstraint=eastwest;" parent="dN4xW0M0NbgQwwogxyiH-331" vertex="1">
          <mxGeometry y="186" width="660" height="44" as="geometry" />
        </mxCell>
        <mxCell id="dN4xW0M0NbgQwwogxyiH-353" value="EMAIL" style="shape=partialRectangle;html=1;whiteSpace=wrap;connectable=0;overflow=hidden;fillColor=none;top=0;left=0;bottom=0;right=0;pointerEvents=1;" parent="dN4xW0M0NbgQwwogxyiH-352" vertex="1">
          <mxGeometry width="131" height="44" as="geometry">
            <mxRectangle width="131" height="44" as="alternateBounds" />
          </mxGeometry>
        </mxCell>
        <mxCell id="dN4xW0M0NbgQwwogxyiH-354" value="Email" style="shape=partialRectangle;html=1;whiteSpace=wrap;connectable=0;overflow=hidden;fillColor=none;top=0;left=0;bottom=0;right=0;pointerEvents=1;" parent="dN4xW0M0NbgQwwogxyiH-352" vertex="1">
          <mxGeometry x="131" width="199" height="44" as="geometry">
            <mxRectangle width="199" height="44" as="alternateBounds" />
          </mxGeometry>
        </mxCell>
        <mxCell id="dN4xW0M0NbgQwwogxyiH-355" value="VARCHAR(255)" style="shape=partialRectangle;html=1;whiteSpace=wrap;connectable=0;overflow=hidden;fillColor=none;top=0;left=0;bottom=0;right=0;pointerEvents=1;" parent="dN4xW0M0NbgQwwogxyiH-352" vertex="1">
          <mxGeometry x="330" width="134" height="44" as="geometry">
            <mxRectangle width="134" height="44" as="alternateBounds" />
          </mxGeometry>
        </mxCell>
        <mxCell id="dN4xW0M0NbgQwwogxyiH-356" value="" style="shape=partialRectangle;html=1;whiteSpace=wrap;connectable=0;overflow=hidden;fillColor=none;top=0;left=0;bottom=0;right=0;pointerEvents=1;" parent="dN4xW0M0NbgQwwogxyiH-352" vertex="1">
          <mxGeometry x="464" width="196" height="44" as="geometry">
            <mxRectangle width="196" height="44" as="alternateBounds" />
          </mxGeometry>
        </mxCell>
        <mxCell id="dN4xW0M0NbgQwwogxyiH-357" style="shape=partialRectangle;collapsible=0;dropTarget=0;pointerEvents=0;fillColor=none;top=0;left=0;bottom=0;right=0;points=[[0,0.5],[1,0.5]];portConstraint=eastwest;" parent="dN4xW0M0NbgQwwogxyiH-331" vertex="1">
          <mxGeometry y="230" width="660" height="44" as="geometry" />
        </mxCell>
        <mxCell id="dN4xW0M0NbgQwwogxyiH-358" value="ADDRESS" style="shape=partialRectangle;html=1;whiteSpace=wrap;connectable=0;overflow=hidden;fillColor=none;top=0;left=0;bottom=0;right=0;pointerEvents=1;" parent="dN4xW0M0NbgQwwogxyiH-357" vertex="1">
          <mxGeometry width="131" height="44" as="geometry">
            <mxRectangle width="131" height="44" as="alternateBounds" />
          </mxGeometry>
        </mxCell>
        <mxCell id="dN4xW0M0NbgQwwogxyiH-359" value="Адрес" style="shape=partialRectangle;html=1;whiteSpace=wrap;connectable=0;overflow=hidden;fillColor=none;top=0;left=0;bottom=0;right=0;pointerEvents=1;" parent="dN4xW0M0NbgQwwogxyiH-357" vertex="1">
          <mxGeometry x="131" width="199" height="44" as="geometry">
            <mxRectangle width="199" height="44" as="alternateBounds" />
          </mxGeometry>
        </mxCell>
        <mxCell id="dN4xW0M0NbgQwwogxyiH-360" value="VARCHAR(255)" style="shape=partialRectangle;html=1;whiteSpace=wrap;connectable=0;overflow=hidden;fillColor=none;top=0;left=0;bottom=0;right=0;pointerEvents=1;" parent="dN4xW0M0NbgQwwogxyiH-357" vertex="1">
          <mxGeometry x="330" width="134" height="44" as="geometry">
            <mxRectangle width="134" height="44" as="alternateBounds" />
          </mxGeometry>
        </mxCell>
        <mxCell id="dN4xW0M0NbgQwwogxyiH-361" style="shape=partialRectangle;html=1;whiteSpace=wrap;connectable=0;overflow=hidden;fillColor=none;top=0;left=0;bottom=0;right=0;pointerEvents=1;" parent="dN4xW0M0NbgQwwogxyiH-357" vertex="1">
          <mxGeometry x="464" width="196" height="44" as="geometry">
            <mxRectangle width="196" height="44" as="alternateBounds" />
          </mxGeometry>
        </mxCell>
        <mxCell id="dN4xW0M0NbgQwwogxyiH-362" style="shape=partialRectangle;collapsible=0;dropTarget=0;pointerEvents=0;fillColor=none;top=0;left=0;bottom=0;right=0;points=[[0,0.5],[1,0.5]];portConstraint=eastwest;" parent="dN4xW0M0NbgQwwogxyiH-331" vertex="1">
          <mxGeometry y="274" width="660" height="44" as="geometry" />
        </mxCell>
        <mxCell id="dN4xW0M0NbgQwwogxyiH-363" value="IS_VERIFIED" style="shape=partialRectangle;html=1;whiteSpace=wrap;connectable=0;overflow=hidden;fillColor=none;top=0;left=0;bottom=0;right=0;pointerEvents=1;" parent="dN4xW0M0NbgQwwogxyiH-362" vertex="1">
          <mxGeometry width="131" height="44" as="geometry">
            <mxRectangle width="131" height="44" as="alternateBounds" />
          </mxGeometry>
        </mxCell>
        <mxCell id="dN4xW0M0NbgQwwogxyiH-364" value="Верифицированы ли данные компании" style="shape=partialRectangle;html=1;whiteSpace=wrap;connectable=0;overflow=hidden;fillColor=none;top=0;left=0;bottom=0;right=0;pointerEvents=1;" parent="dN4xW0M0NbgQwwogxyiH-362" vertex="1">
          <mxGeometry x="131" width="199" height="44" as="geometry">
            <mxRectangle width="199" height="44" as="alternateBounds" />
          </mxGeometry>
        </mxCell>
        <mxCell id="dN4xW0M0NbgQwwogxyiH-365" value="BOOLEAN" style="shape=partialRectangle;html=1;whiteSpace=wrap;connectable=0;overflow=hidden;fillColor=none;top=0;left=0;bottom=0;right=0;pointerEvents=1;" parent="dN4xW0M0NbgQwwogxyiH-362" vertex="1">
          <mxGeometry x="330" width="134" height="44" as="geometry">
            <mxRectangle width="134" height="44" as="alternateBounds" />
          </mxGeometry>
        </mxCell>
        <mxCell id="dN4xW0M0NbgQwwogxyiH-366" value="NOT NULL DEFAULT FALSE" style="shape=partialRectangle;html=1;whiteSpace=wrap;connectable=0;overflow=hidden;fillColor=none;top=0;left=0;bottom=0;right=0;pointerEvents=1;" parent="dN4xW0M0NbgQwwogxyiH-362" vertex="1">
          <mxGeometry x="464" width="196" height="44" as="geometry">
            <mxRectangle width="196" height="44" as="alternateBounds" />
          </mxGeometry>
        </mxCell>
        <mxCell id="dN4xW0M0NbgQwwogxyiH-367" style="shape=partialRectangle;collapsible=0;dropTarget=0;pointerEvents=0;fillColor=none;top=0;left=0;bottom=0;right=0;points=[[0,0.5],[1,0.5]];portConstraint=eastwest;" parent="dN4xW0M0NbgQwwogxyiH-331" vertex="1">
          <mxGeometry y="318" width="660" height="44" as="geometry" />
        </mxCell>
        <mxCell id="dN4xW0M0NbgQwwogxyiH-368" value="VALID_TO_DTTM" style="shape=partialRectangle;html=1;whiteSpace=wrap;connectable=0;overflow=hidden;fillColor=none;top=0;left=0;bottom=0;right=0;pointerEvents=1;" parent="dN4xW0M0NbgQwwogxyiH-367" vertex="1">
          <mxGeometry width="131" height="44" as="geometry">
            <mxRectangle width="131" height="44" as="alternateBounds" />
          </mxGeometry>
        </mxCell>
        <mxCell id="dN4xW0M0NbgQwwogxyiH-369" value="Дата конца текущей версии" style="shape=partialRectangle;html=1;whiteSpace=wrap;connectable=0;overflow=hidden;fillColor=none;top=0;left=0;bottom=0;right=0;pointerEvents=1;" parent="dN4xW0M0NbgQwwogxyiH-367" vertex="1">
          <mxGeometry x="131" width="199" height="44" as="geometry">
            <mxRectangle width="199" height="44" as="alternateBounds" />
          </mxGeometry>
        </mxCell>
        <mxCell id="dN4xW0M0NbgQwwogxyiH-370" value="TIMESTAMP" style="shape=partialRectangle;html=1;whiteSpace=wrap;connectable=0;overflow=hidden;fillColor=none;top=0;left=0;bottom=0;right=0;pointerEvents=1;" parent="dN4xW0M0NbgQwwogxyiH-367" vertex="1">
          <mxGeometry x="330" width="134" height="44" as="geometry">
            <mxRectangle width="134" height="44" as="alternateBounds" />
          </mxGeometry>
        </mxCell>
        <mxCell id="dN4xW0M0NbgQwwogxyiH-371" style="shape=partialRectangle;html=1;whiteSpace=wrap;connectable=0;overflow=hidden;fillColor=none;top=0;left=0;bottom=0;right=0;pointerEvents=1;" parent="dN4xW0M0NbgQwwogxyiH-367" vertex="1">
          <mxGeometry x="464" width="196" height="44" as="geometry">
            <mxRectangle width="196" height="44" as="alternateBounds" />
          </mxGeometry>
        </mxCell>
        <mxCell id="dN4xW0M0NbgQwwogxyiH-372" value="Order" style="shape=table;startSize=30;container=1;collapsible=0;childLayout=tableLayout;fillColor=#ffe6cc;strokeColor=#d79b00;" parent="1" vertex="1">
          <mxGeometry x="1610" y="1396" width="660" height="274" as="geometry" />
        </mxCell>
        <mxCell id="dN4xW0M0NbgQwwogxyiH-373" value="" style="shape=partialRectangle;collapsible=0;dropTarget=0;pointerEvents=0;fillColor=none;top=0;left=0;bottom=0;right=0;points=[[0,0.5],[1,0.5]];portConstraint=eastwest;" parent="dN4xW0M0NbgQwwogxyiH-372" vertex="1">
          <mxGeometry y="30" width="660" height="22" as="geometry" />
        </mxCell>
        <mxCell id="dN4xW0M0NbgQwwogxyiH-374" value="Название" style="shape=partialRectangle;html=1;whiteSpace=wrap;connectable=0;overflow=hidden;fillColor=none;top=0;left=0;bottom=0;right=0;pointerEvents=1;" parent="dN4xW0M0NbgQwwogxyiH-373" vertex="1">
          <mxGeometry width="131" height="22" as="geometry">
            <mxRectangle width="131" height="22" as="alternateBounds" />
          </mxGeometry>
        </mxCell>
        <mxCell id="dN4xW0M0NbgQwwogxyiH-375" value="Описание" style="shape=partialRectangle;html=1;whiteSpace=wrap;connectable=0;overflow=hidden;fillColor=none;top=0;left=0;bottom=0;right=0;pointerEvents=1;" parent="dN4xW0M0NbgQwwogxyiH-373" vertex="1">
          <mxGeometry x="131" width="199" height="22" as="geometry">
            <mxRectangle width="199" height="22" as="alternateBounds" />
          </mxGeometry>
        </mxCell>
        <mxCell id="dN4xW0M0NbgQwwogxyiH-376" value="Тип данных" style="shape=partialRectangle;html=1;whiteSpace=wrap;connectable=0;overflow=hidden;fillColor=none;top=0;left=0;bottom=0;right=0;pointerEvents=1;" parent="dN4xW0M0NbgQwwogxyiH-373" vertex="1">
          <mxGeometry x="330" width="134" height="22" as="geometry">
            <mxRectangle width="134" height="22" as="alternateBounds" />
          </mxGeometry>
        </mxCell>
        <mxCell id="dN4xW0M0NbgQwwogxyiH-377" value="Ограничение" style="shape=partialRectangle;html=1;whiteSpace=wrap;connectable=0;overflow=hidden;fillColor=none;top=0;left=0;bottom=0;right=0;pointerEvents=1;" parent="dN4xW0M0NbgQwwogxyiH-373" vertex="1">
          <mxGeometry x="464" width="196" height="22" as="geometry">
            <mxRectangle width="196" height="22" as="alternateBounds" />
          </mxGeometry>
        </mxCell>
        <mxCell id="dN4xW0M0NbgQwwogxyiH-378" value="" style="shape=partialRectangle;collapsible=0;dropTarget=0;pointerEvents=0;fillColor=none;top=0;left=0;bottom=0;right=0;points=[[0,0.5],[1,0.5]];portConstraint=eastwest;" parent="dN4xW0M0NbgQwwogxyiH-372" vertex="1">
          <mxGeometry y="52" width="660" height="45" as="geometry" />
        </mxCell>
        <mxCell id="dN4xW0M0NbgQwwogxyiH-379" value="ORDER_ID" style="shape=partialRectangle;html=1;whiteSpace=wrap;connectable=0;overflow=hidden;fillColor=none;top=0;left=0;bottom=0;right=0;pointerEvents=1;" parent="dN4xW0M0NbgQwwogxyiH-378" vertex="1">
          <mxGeometry width="131" height="45" as="geometry">
            <mxRectangle width="131" height="45" as="alternateBounds" />
          </mxGeometry>
        </mxCell>
        <mxCell id="dN4xW0M0NbgQwwogxyiH-380" value="Идентификатор заказа" style="shape=partialRectangle;html=1;whiteSpace=wrap;connectable=0;overflow=hidden;fillColor=none;top=0;left=0;bottom=0;right=0;pointerEvents=1;" parent="dN4xW0M0NbgQwwogxyiH-378" vertex="1">
          <mxGeometry x="131" width="199" height="45" as="geometry">
            <mxRectangle width="199" height="45" as="alternateBounds" />
          </mxGeometry>
        </mxCell>
        <mxCell id="dN4xW0M0NbgQwwogxyiH-381" value="SERIAL" style="shape=partialRectangle;html=1;whiteSpace=wrap;connectable=0;overflow=hidden;fillColor=none;top=0;left=0;bottom=0;right=0;pointerEvents=1;" parent="dN4xW0M0NbgQwwogxyiH-378" vertex="1">
          <mxGeometry x="330" width="134" height="45" as="geometry">
            <mxRectangle width="134" height="45" as="alternateBounds" />
          </mxGeometry>
        </mxCell>
        <mxCell id="dN4xW0M0NbgQwwogxyiH-382" value="PRIMARY KEY" style="shape=partialRectangle;html=1;whiteSpace=wrap;connectable=0;overflow=hidden;fillColor=none;top=0;left=0;bottom=0;right=0;pointerEvents=1;" parent="dN4xW0M0NbgQwwogxyiH-378" vertex="1">
          <mxGeometry x="464" width="196" height="45" as="geometry">
            <mxRectangle width="196" height="45" as="alternateBounds" />
          </mxGeometry>
        </mxCell>
        <mxCell id="dN4xW0M0NbgQwwogxyiH-383" value="" style="shape=partialRectangle;collapsible=0;dropTarget=0;pointerEvents=0;fillColor=none;top=0;left=0;bottom=0;right=0;points=[[0,0.5],[1,0.5]];portConstraint=eastwest;" parent="dN4xW0M0NbgQwwogxyiH-372" vertex="1">
          <mxGeometry y="97" width="660" height="44" as="geometry" />
        </mxCell>
        <mxCell id="dN4xW0M0NbgQwwogxyiH-384" value="INN" style="shape=partialRectangle;html=1;whiteSpace=wrap;connectable=0;overflow=hidden;fillColor=none;top=0;left=0;bottom=0;right=0;pointerEvents=1;" parent="dN4xW0M0NbgQwwogxyiH-383" vertex="1">
          <mxGeometry width="131" height="44" as="geometry">
            <mxRectangle width="131" height="44" as="alternateBounds" />
          </mxGeometry>
        </mxCell>
        <mxCell id="dN4xW0M0NbgQwwogxyiH-385" value="ИНН компании" style="shape=partialRectangle;html=1;whiteSpace=wrap;connectable=0;overflow=hidden;fillColor=none;top=0;left=0;bottom=0;right=0;pointerEvents=1;" parent="dN4xW0M0NbgQwwogxyiH-383" vertex="1">
          <mxGeometry x="131" width="199" height="44" as="geometry">
            <mxRectangle width="199" height="44" as="alternateBounds" />
          </mxGeometry>
        </mxCell>
        <mxCell id="dN4xW0M0NbgQwwogxyiH-386" value="CHAR(12)" style="shape=partialRectangle;html=1;whiteSpace=wrap;connectable=0;overflow=hidden;fillColor=none;top=0;left=0;bottom=0;right=0;pointerEvents=1;" parent="dN4xW0M0NbgQwwogxyiH-383" vertex="1">
          <mxGeometry x="330" width="134" height="44" as="geometry">
            <mxRectangle width="134" height="44" as="alternateBounds" />
          </mxGeometry>
        </mxCell>
        <mxCell id="dN4xW0M0NbgQwwogxyiH-387" value="REFERENCES companies" style="shape=partialRectangle;html=1;whiteSpace=wrap;connectable=0;overflow=hidden;fillColor=none;top=0;left=0;bottom=0;right=0;pointerEvents=1;" parent="dN4xW0M0NbgQwwogxyiH-383" vertex="1">
          <mxGeometry x="464" width="196" height="44" as="geometry">
            <mxRectangle width="196" height="44" as="alternateBounds" />
          </mxGeometry>
        </mxCell>
        <mxCell id="dN4xW0M0NbgQwwogxyiH-388" value="" style="shape=partialRectangle;collapsible=0;dropTarget=0;pointerEvents=0;fillColor=none;top=0;left=0;bottom=0;right=0;points=[[0,0.5],[1,0.5]];portConstraint=eastwest;" parent="dN4xW0M0NbgQwwogxyiH-372" vertex="1">
          <mxGeometry y="141" width="660" height="45" as="geometry" />
        </mxCell>
        <mxCell id="dN4xW0M0NbgQwwogxyiH-389" value="TICKET_ID" style="shape=partialRectangle;html=1;whiteSpace=wrap;connectable=0;overflow=hidden;fillColor=none;top=0;left=0;bottom=0;right=0;pointerEvents=1;" parent="dN4xW0M0NbgQwwogxyiH-388" vertex="1">
          <mxGeometry width="131" height="45" as="geometry">
            <mxRectangle width="131" height="45" as="alternateBounds" />
          </mxGeometry>
        </mxCell>
        <mxCell id="dN4xW0M0NbgQwwogxyiH-390" value="Идентификатор билета" style="shape=partialRectangle;html=1;whiteSpace=wrap;connectable=0;overflow=hidden;fillColor=none;top=0;left=0;bottom=0;right=0;pointerEvents=1;" parent="dN4xW0M0NbgQwwogxyiH-388" vertex="1">
          <mxGeometry x="131" width="199" height="45" as="geometry">
            <mxRectangle width="199" height="45" as="alternateBounds" />
          </mxGeometry>
        </mxCell>
        <mxCell id="dN4xW0M0NbgQwwogxyiH-391" value="INTEGER" style="shape=partialRectangle;html=1;whiteSpace=wrap;connectable=0;overflow=hidden;fillColor=none;top=0;left=0;bottom=0;right=0;pointerEvents=1;" parent="dN4xW0M0NbgQwwogxyiH-388" vertex="1">
          <mxGeometry x="330" width="134" height="45" as="geometry">
            <mxRectangle width="134" height="45" as="alternateBounds" />
          </mxGeometry>
        </mxCell>
        <mxCell id="dN4xW0M0NbgQwwogxyiH-392" value="REFERENCES tickets" style="shape=partialRectangle;html=1;whiteSpace=wrap;connectable=0;overflow=hidden;fillColor=none;top=0;left=0;bottom=0;right=0;pointerEvents=1;" parent="dN4xW0M0NbgQwwogxyiH-388" vertex="1">
          <mxGeometry x="464" width="196" height="45" as="geometry">
            <mxRectangle width="196" height="45" as="alternateBounds" />
          </mxGeometry>
        </mxCell>
        <mxCell id="dN4xW0M0NbgQwwogxyiH-393" value="" style="shape=partialRectangle;collapsible=0;dropTarget=0;pointerEvents=0;fillColor=none;top=0;left=0;bottom=0;right=0;points=[[0,0.5],[1,0.5]];portConstraint=eastwest;" parent="dN4xW0M0NbgQwwogxyiH-372" vertex="1">
          <mxGeometry y="186" width="660" height="44" as="geometry" />
        </mxCell>
        <mxCell id="dN4xW0M0NbgQwwogxyiH-394" value="PAYMENT_ID" style="shape=partialRectangle;html=1;whiteSpace=wrap;connectable=0;overflow=hidden;fillColor=none;top=0;left=0;bottom=0;right=0;pointerEvents=1;" parent="dN4xW0M0NbgQwwogxyiH-393" vertex="1">
          <mxGeometry width="131" height="44" as="geometry">
            <mxRectangle width="131" height="44" as="alternateBounds" />
          </mxGeometry>
        </mxCell>
        <mxCell id="dN4xW0M0NbgQwwogxyiH-395" value="Идентификатор &amp;nbsp;оплаты" style="shape=partialRectangle;html=1;whiteSpace=wrap;connectable=0;overflow=hidden;fillColor=none;top=0;left=0;bottom=0;right=0;pointerEvents=1;" parent="dN4xW0M0NbgQwwogxyiH-393" vertex="1">
          <mxGeometry x="131" width="199" height="44" as="geometry">
            <mxRectangle width="199" height="44" as="alternateBounds" />
          </mxGeometry>
        </mxCell>
        <mxCell id="dN4xW0M0NbgQwwogxyiH-396" value="INTEGER" style="shape=partialRectangle;html=1;whiteSpace=wrap;connectable=0;overflow=hidden;fillColor=none;top=0;left=0;bottom=0;right=0;pointerEvents=1;" parent="dN4xW0M0NbgQwwogxyiH-393" vertex="1">
          <mxGeometry x="330" width="134" height="44" as="geometry">
            <mxRectangle width="134" height="44" as="alternateBounds" />
          </mxGeometry>
        </mxCell>
        <mxCell id="dN4xW0M0NbgQwwogxyiH-397" value="REFERENCES payments" style="shape=partialRectangle;html=1;whiteSpace=wrap;connectable=0;overflow=hidden;fillColor=none;top=0;left=0;bottom=0;right=0;pointerEvents=1;" parent="dN4xW0M0NbgQwwogxyiH-393" vertex="1">
          <mxGeometry x="464" width="196" height="44" as="geometry">
            <mxRectangle width="196" height="44" as="alternateBounds" />
          </mxGeometry>
        </mxCell>
        <mxCell id="dN4xW0M0NbgQwwogxyiH-398" style="shape=partialRectangle;collapsible=0;dropTarget=0;pointerEvents=0;fillColor=none;top=0;left=0;bottom=0;right=0;points=[[0,0.5],[1,0.5]];portConstraint=eastwest;" parent="dN4xW0M0NbgQwwogxyiH-372" vertex="1">
          <mxGeometry y="230" width="660" height="44" as="geometry" />
        </mxCell>
        <mxCell id="dN4xW0M0NbgQwwogxyiH-399" value="ORDER_DTTM" style="shape=partialRectangle;html=1;whiteSpace=wrap;connectable=0;overflow=hidden;fillColor=none;top=0;left=0;bottom=0;right=0;pointerEvents=1;" parent="dN4xW0M0NbgQwwogxyiH-398" vertex="1">
          <mxGeometry width="131" height="44" as="geometry">
            <mxRectangle width="131" height="44" as="alternateBounds" />
          </mxGeometry>
        </mxCell>
        <mxCell id="dN4xW0M0NbgQwwogxyiH-400" value="Дата заказа" style="shape=partialRectangle;html=1;whiteSpace=wrap;connectable=0;overflow=hidden;fillColor=none;top=0;left=0;bottom=0;right=0;pointerEvents=1;" parent="dN4xW0M0NbgQwwogxyiH-398" vertex="1">
          <mxGeometry x="131" width="199" height="44" as="geometry">
            <mxRectangle width="199" height="44" as="alternateBounds" />
          </mxGeometry>
        </mxCell>
        <mxCell id="dN4xW0M0NbgQwwogxyiH-401" value="TIMESTAMP" style="shape=partialRectangle;html=1;whiteSpace=wrap;connectable=0;overflow=hidden;fillColor=none;top=0;left=0;bottom=0;right=0;pointerEvents=1;" parent="dN4xW0M0NbgQwwogxyiH-398" vertex="1">
          <mxGeometry x="330" width="134" height="44" as="geometry">
            <mxRectangle width="134" height="44" as="alternateBounds" />
          </mxGeometry>
        </mxCell>
        <mxCell id="dN4xW0M0NbgQwwogxyiH-402" style="shape=partialRectangle;html=1;whiteSpace=wrap;connectable=0;overflow=hidden;fillColor=none;top=0;left=0;bottom=0;right=0;pointerEvents=1;" parent="dN4xW0M0NbgQwwogxyiH-398" vertex="1">
          <mxGeometry x="464" width="196" height="44" as="geometry">
            <mxRectangle width="196" height="44" as="alternateBounds" />
          </mxGeometry>
        </mxCell>
        <mxCell id="ikYVi9CUkikHwhLRP4jJ-1" value="Payment" style="shape=table;startSize=30;container=1;collapsible=0;childLayout=tableLayout;fillColor=#ffe6cc;strokeColor=#d79b00;" parent="1" vertex="1">
          <mxGeometry x="2370" y="1390" width="660" height="318" as="geometry" />
        </mxCell>
        <mxCell id="ikYVi9CUkikHwhLRP4jJ-2" value="" style="shape=partialRectangle;collapsible=0;dropTarget=0;pointerEvents=0;fillColor=none;top=0;left=0;bottom=0;right=0;points=[[0,0.5],[1,0.5]];portConstraint=eastwest;" parent="ikYVi9CUkikHwhLRP4jJ-1" vertex="1">
          <mxGeometry y="30" width="660" height="22" as="geometry" />
        </mxCell>
        <mxCell id="ikYVi9CUkikHwhLRP4jJ-3" value="Название" style="shape=partialRectangle;html=1;whiteSpace=wrap;connectable=0;overflow=hidden;fillColor=none;top=0;left=0;bottom=0;right=0;pointerEvents=1;" parent="ikYVi9CUkikHwhLRP4jJ-2" vertex="1">
          <mxGeometry width="131" height="22" as="geometry">
            <mxRectangle width="131" height="22" as="alternateBounds" />
          </mxGeometry>
        </mxCell>
        <mxCell id="ikYVi9CUkikHwhLRP4jJ-4" value="Описание" style="shape=partialRectangle;html=1;whiteSpace=wrap;connectable=0;overflow=hidden;fillColor=none;top=0;left=0;bottom=0;right=0;pointerEvents=1;" parent="ikYVi9CUkikHwhLRP4jJ-2" vertex="1">
          <mxGeometry x="131" width="199" height="22" as="geometry">
            <mxRectangle width="199" height="22" as="alternateBounds" />
          </mxGeometry>
        </mxCell>
        <mxCell id="ikYVi9CUkikHwhLRP4jJ-5" value="Тип данных" style="shape=partialRectangle;html=1;whiteSpace=wrap;connectable=0;overflow=hidden;fillColor=none;top=0;left=0;bottom=0;right=0;pointerEvents=1;" parent="ikYVi9CUkikHwhLRP4jJ-2" vertex="1">
          <mxGeometry x="330" width="134" height="22" as="geometry">
            <mxRectangle width="134" height="22" as="alternateBounds" />
          </mxGeometry>
        </mxCell>
        <mxCell id="ikYVi9CUkikHwhLRP4jJ-6" value="Ограничение" style="shape=partialRectangle;html=1;whiteSpace=wrap;connectable=0;overflow=hidden;fillColor=none;top=0;left=0;bottom=0;right=0;pointerEvents=1;" parent="ikYVi9CUkikHwhLRP4jJ-2" vertex="1">
          <mxGeometry x="464" width="196" height="22" as="geometry">
            <mxRectangle width="196" height="22" as="alternateBounds" />
          </mxGeometry>
        </mxCell>
        <mxCell id="ikYVi9CUkikHwhLRP4jJ-7" value="" style="shape=partialRectangle;collapsible=0;dropTarget=0;pointerEvents=0;fillColor=none;top=0;left=0;bottom=0;right=0;points=[[0,0.5],[1,0.5]];portConstraint=eastwest;" parent="ikYVi9CUkikHwhLRP4jJ-1" vertex="1">
          <mxGeometry y="52" width="660" height="45" as="geometry" />
        </mxCell>
        <mxCell id="ikYVi9CUkikHwhLRP4jJ-8" value="PAYMENT_ID" style="shape=partialRectangle;html=1;whiteSpace=wrap;connectable=0;overflow=hidden;fillColor=none;top=0;left=0;bottom=0;right=0;pointerEvents=1;" parent="ikYVi9CUkikHwhLRP4jJ-7" vertex="1">
          <mxGeometry width="131" height="45" as="geometry">
            <mxRectangle width="131" height="45" as="alternateBounds" />
          </mxGeometry>
        </mxCell>
        <mxCell id="ikYVi9CUkikHwhLRP4jJ-9" value="Идентификатор оплаты" style="shape=partialRectangle;html=1;whiteSpace=wrap;connectable=0;overflow=hidden;fillColor=none;top=0;left=0;bottom=0;right=0;pointerEvents=1;" parent="ikYVi9CUkikHwhLRP4jJ-7" vertex="1">
          <mxGeometry x="131" width="199" height="45" as="geometry">
            <mxRectangle width="199" height="45" as="alternateBounds" />
          </mxGeometry>
        </mxCell>
        <mxCell id="ikYVi9CUkikHwhLRP4jJ-10" value="SERIAL" style="shape=partialRectangle;html=1;whiteSpace=wrap;connectable=0;overflow=hidden;fillColor=none;top=0;left=0;bottom=0;right=0;pointerEvents=1;" parent="ikYVi9CUkikHwhLRP4jJ-7" vertex="1">
          <mxGeometry x="330" width="134" height="45" as="geometry">
            <mxRectangle width="134" height="45" as="alternateBounds" />
          </mxGeometry>
        </mxCell>
        <mxCell id="ikYVi9CUkikHwhLRP4jJ-11" value="PRIMARY KEY" style="shape=partialRectangle;html=1;whiteSpace=wrap;connectable=0;overflow=hidden;fillColor=none;top=0;left=0;bottom=0;right=0;pointerEvents=1;" parent="ikYVi9CUkikHwhLRP4jJ-7" vertex="1">
          <mxGeometry x="464" width="196" height="45" as="geometry">
            <mxRectangle width="196" height="45" as="alternateBounds" />
          </mxGeometry>
        </mxCell>
        <mxCell id="ikYVi9CUkikHwhLRP4jJ-12" value="" style="shape=partialRectangle;collapsible=0;dropTarget=0;pointerEvents=0;fillColor=none;top=0;left=0;bottom=0;right=0;points=[[0,0.5],[1,0.5]];portConstraint=eastwest;" parent="ikYVi9CUkikHwhLRP4jJ-1" vertex="1">
          <mxGeometry y="97" width="660" height="44" as="geometry" />
        </mxCell>
        <mxCell id="ikYVi9CUkikHwhLRP4jJ-13" value="ORDER_ID" style="shape=partialRectangle;html=1;whiteSpace=wrap;connectable=0;overflow=hidden;fillColor=none;top=0;left=0;bottom=0;right=0;pointerEvents=1;" parent="ikYVi9CUkikHwhLRP4jJ-12" vertex="1">
          <mxGeometry width="131" height="44" as="geometry">
            <mxRectangle width="131" height="44" as="alternateBounds" />
          </mxGeometry>
        </mxCell>
        <mxCell id="ikYVi9CUkikHwhLRP4jJ-14" value="Идентификатор &amp;nbsp;заказа" style="shape=partialRectangle;html=1;whiteSpace=wrap;connectable=0;overflow=hidden;fillColor=none;top=0;left=0;bottom=0;right=0;pointerEvents=1;" parent="ikYVi9CUkikHwhLRP4jJ-12" vertex="1">
          <mxGeometry x="131" width="199" height="44" as="geometry">
            <mxRectangle width="199" height="44" as="alternateBounds" />
          </mxGeometry>
        </mxCell>
        <mxCell id="ikYVi9CUkikHwhLRP4jJ-15" value="INTEGER" style="shape=partialRectangle;html=1;whiteSpace=wrap;connectable=0;overflow=hidden;fillColor=none;top=0;left=0;bottom=0;right=0;pointerEvents=1;" parent="ikYVi9CUkikHwhLRP4jJ-12" vertex="1">
          <mxGeometry x="330" width="134" height="44" as="geometry">
            <mxRectangle width="134" height="44" as="alternateBounds" />
          </mxGeometry>
        </mxCell>
        <mxCell id="ikYVi9CUkikHwhLRP4jJ-16" value="REFERENCES companies" style="shape=partialRectangle;html=1;whiteSpace=wrap;connectable=0;overflow=hidden;fillColor=none;top=0;left=0;bottom=0;right=0;pointerEvents=1;" parent="ikYVi9CUkikHwhLRP4jJ-12" vertex="1">
          <mxGeometry x="464" width="196" height="44" as="geometry">
            <mxRectangle width="196" height="44" as="alternateBounds" />
          </mxGeometry>
        </mxCell>
        <mxCell id="ikYVi9CUkikHwhLRP4jJ-17" value="" style="shape=partialRectangle;collapsible=0;dropTarget=0;pointerEvents=0;fillColor=none;top=0;left=0;bottom=0;right=0;points=[[0,0.5],[1,0.5]];portConstraint=eastwest;" parent="ikYVi9CUkikHwhLRP4jJ-1" vertex="1">
          <mxGeometry y="141" width="660" height="45" as="geometry" />
        </mxCell>
        <mxCell id="ikYVi9CUkikHwhLRP4jJ-18" value="CLIENT_ID" style="shape=partialRectangle;html=1;whiteSpace=wrap;connectable=0;overflow=hidden;fillColor=none;top=0;left=0;bottom=0;right=0;pointerEvents=1;" parent="ikYVi9CUkikHwhLRP4jJ-17" vertex="1">
          <mxGeometry width="131" height="45" as="geometry">
            <mxRectangle width="131" height="45" as="alternateBounds" />
          </mxGeometry>
        </mxCell>
        <mxCell id="ikYVi9CUkikHwhLRP4jJ-19" value="Идентификатор клиента" style="shape=partialRectangle;html=1;whiteSpace=wrap;connectable=0;overflow=hidden;fillColor=none;top=0;left=0;bottom=0;right=0;pointerEvents=1;" parent="ikYVi9CUkikHwhLRP4jJ-17" vertex="1">
          <mxGeometry x="131" width="199" height="45" as="geometry">
            <mxRectangle width="199" height="45" as="alternateBounds" />
          </mxGeometry>
        </mxCell>
        <mxCell id="ikYVi9CUkikHwhLRP4jJ-20" value="INTEGER" style="shape=partialRectangle;html=1;whiteSpace=wrap;connectable=0;overflow=hidden;fillColor=none;top=0;left=0;bottom=0;right=0;pointerEvents=1;" parent="ikYVi9CUkikHwhLRP4jJ-17" vertex="1">
          <mxGeometry x="330" width="134" height="45" as="geometry">
            <mxRectangle width="134" height="45" as="alternateBounds" />
          </mxGeometry>
        </mxCell>
        <mxCell id="ikYVi9CUkikHwhLRP4jJ-21" value="REFERENCES tickets" style="shape=partialRectangle;html=1;whiteSpace=wrap;connectable=0;overflow=hidden;fillColor=none;top=0;left=0;bottom=0;right=0;pointerEvents=1;" parent="ikYVi9CUkikHwhLRP4jJ-17" vertex="1">
          <mxGeometry x="464" width="196" height="45" as="geometry">
            <mxRectangle width="196" height="45" as="alternateBounds" />
          </mxGeometry>
        </mxCell>
        <mxCell id="ikYVi9CUkikHwhLRP4jJ-22" value="" style="shape=partialRectangle;collapsible=0;dropTarget=0;pointerEvents=0;fillColor=none;top=0;left=0;bottom=0;right=0;points=[[0,0.5],[1,0.5]];portConstraint=eastwest;" parent="ikYVi9CUkikHwhLRP4jJ-1" vertex="1">
          <mxGeometry y="186" width="660" height="44" as="geometry" />
        </mxCell>
        <mxCell id="ikYVi9CUkikHwhLRP4jJ-23" value="PAYMENT_AMT" style="shape=partialRectangle;html=1;whiteSpace=wrap;connectable=0;overflow=hidden;fillColor=none;top=0;left=0;bottom=0;right=0;pointerEvents=1;" parent="ikYVi9CUkikHwhLRP4jJ-22" vertex="1">
          <mxGeometry width="131" height="44" as="geometry">
            <mxRectangle width="131" height="44" as="alternateBounds" />
          </mxGeometry>
        </mxCell>
        <mxCell id="ikYVi9CUkikHwhLRP4jJ-24" value="Размер платежа" style="shape=partialRectangle;html=1;whiteSpace=wrap;connectable=0;overflow=hidden;fillColor=none;top=0;left=0;bottom=0;right=0;pointerEvents=1;" parent="ikYVi9CUkikHwhLRP4jJ-22" vertex="1">
          <mxGeometry x="131" width="199" height="44" as="geometry">
            <mxRectangle width="199" height="44" as="alternateBounds" />
          </mxGeometry>
        </mxCell>
        <mxCell id="ikYVi9CUkikHwhLRP4jJ-25" value="INTEGER" style="shape=partialRectangle;html=1;whiteSpace=wrap;connectable=0;overflow=hidden;fillColor=none;top=0;left=0;bottom=0;right=0;pointerEvents=1;" parent="ikYVi9CUkikHwhLRP4jJ-22" vertex="1">
          <mxGeometry x="330" width="134" height="44" as="geometry">
            <mxRectangle width="134" height="44" as="alternateBounds" />
          </mxGeometry>
        </mxCell>
        <mxCell id="ikYVi9CUkikHwhLRP4jJ-26" value="REFERENCES payments &amp;nbsp;CONSTRAIN positive_amount CHECK (payment_amt &amp;gt;= 0)" style="shape=partialRectangle;html=1;whiteSpace=wrap;connectable=0;overflow=hidden;fillColor=none;top=0;left=0;bottom=0;right=0;pointerEvents=1;" parent="ikYVi9CUkikHwhLRP4jJ-22" vertex="1">
          <mxGeometry x="464" width="196" height="44" as="geometry">
            <mxRectangle width="196" height="44" as="alternateBounds" />
          </mxGeometry>
        </mxCell>
        <mxCell id="ikYVi9CUkikHwhLRP4jJ-27" style="shape=partialRectangle;collapsible=0;dropTarget=0;pointerEvents=0;fillColor=none;top=0;left=0;bottom=0;right=0;points=[[0,0.5],[1,0.5]];portConstraint=eastwest;" parent="ikYVi9CUkikHwhLRP4jJ-1" vertex="1">
          <mxGeometry y="230" width="660" height="44" as="geometry" />
        </mxCell>
        <mxCell id="ikYVi9CUkikHwhLRP4jJ-28" value="PAYMENT_DTTM" style="shape=partialRectangle;html=1;whiteSpace=wrap;connectable=0;overflow=hidden;fillColor=none;top=0;left=0;bottom=0;right=0;pointerEvents=1;" parent="ikYVi9CUkikHwhLRP4jJ-27" vertex="1">
          <mxGeometry width="131" height="44" as="geometry">
            <mxRectangle width="131" height="44" as="alternateBounds" />
          </mxGeometry>
        </mxCell>
        <mxCell id="ikYVi9CUkikHwhLRP4jJ-29" value="Дата платежа" style="shape=partialRectangle;html=1;whiteSpace=wrap;connectable=0;overflow=hidden;fillColor=none;top=0;left=0;bottom=0;right=0;pointerEvents=1;" parent="ikYVi9CUkikHwhLRP4jJ-27" vertex="1">
          <mxGeometry x="131" width="199" height="44" as="geometry">
            <mxRectangle width="199" height="44" as="alternateBounds" />
          </mxGeometry>
        </mxCell>
        <mxCell id="ikYVi9CUkikHwhLRP4jJ-30" value="TIMESTAMP" style="shape=partialRectangle;html=1;whiteSpace=wrap;connectable=0;overflow=hidden;fillColor=none;top=0;left=0;bottom=0;right=0;pointerEvents=1;" parent="ikYVi9CUkikHwhLRP4jJ-27" vertex="1">
          <mxGeometry x="330" width="134" height="44" as="geometry">
            <mxRectangle width="134" height="44" as="alternateBounds" />
          </mxGeometry>
        </mxCell>
        <mxCell id="ikYVi9CUkikHwhLRP4jJ-31" style="shape=partialRectangle;html=1;whiteSpace=wrap;connectable=0;overflow=hidden;fillColor=none;top=0;left=0;bottom=0;right=0;pointerEvents=1;" parent="ikYVi9CUkikHwhLRP4jJ-27" vertex="1">
          <mxGeometry x="464" width="196" height="44" as="geometry">
            <mxRectangle width="196" height="44" as="alternateBounds" />
          </mxGeometry>
        </mxCell>
        <mxCell id="ikYVi9CUkikHwhLRP4jJ-32" style="shape=partialRectangle;collapsible=0;dropTarget=0;pointerEvents=0;fillColor=none;top=0;left=0;bottom=0;right=0;points=[[0,0.5],[1,0.5]];portConstraint=eastwest;" parent="ikYVi9CUkikHwhLRP4jJ-1" vertex="1">
          <mxGeometry y="274" width="660" height="44" as="geometry" />
        </mxCell>
        <mxCell id="ikYVi9CUkikHwhLRP4jJ-33" value="STATUS" style="shape=partialRectangle;html=1;whiteSpace=wrap;connectable=0;overflow=hidden;fillColor=none;top=0;left=0;bottom=0;right=0;pointerEvents=1;" parent="ikYVi9CUkikHwhLRP4jJ-32" vertex="1">
          <mxGeometry width="131" height="44" as="geometry">
            <mxRectangle width="131" height="44" as="alternateBounds" />
          </mxGeometry>
        </mxCell>
        <mxCell id="ikYVi9CUkikHwhLRP4jJ-34" value="Статус платежа" style="shape=partialRectangle;html=1;whiteSpace=wrap;connectable=0;overflow=hidden;fillColor=none;top=0;left=0;bottom=0;right=0;pointerEvents=1;" parent="ikYVi9CUkikHwhLRP4jJ-32" vertex="1">
          <mxGeometry x="131" width="199" height="44" as="geometry">
            <mxRectangle width="199" height="44" as="alternateBounds" />
          </mxGeometry>
        </mxCell>
        <mxCell id="ikYVi9CUkikHwhLRP4jJ-35" value="ENUM" style="shape=partialRectangle;html=1;whiteSpace=wrap;connectable=0;overflow=hidden;fillColor=none;top=0;left=0;bottom=0;right=0;pointerEvents=1;" parent="ikYVi9CUkikHwhLRP4jJ-32" vertex="1">
          <mxGeometry x="330" width="134" height="44" as="geometry">
            <mxRectangle width="134" height="44" as="alternateBounds" />
          </mxGeometry>
        </mxCell>
        <mxCell id="ikYVi9CUkikHwhLRP4jJ-36" value="NOT NULL DEFAULT &amp;nbsp;&#39;pending&#39;" style="shape=partialRectangle;html=1;whiteSpace=wrap;connectable=0;overflow=hidden;fillColor=none;top=0;left=0;bottom=0;right=0;pointerEvents=1;" parent="ikYVi9CUkikHwhLRP4jJ-32" vertex="1">
          <mxGeometry x="464" width="196" height="44" as="geometry">
            <mxRectangle width="196" height="44" as="alternateBounds" />
          </mxGeometry>
        </mxCell>
        <mxCell id="ikYVi9CUkikHwhLRP4jJ-37" value="Client" style="shape=table;startSize=30;container=1;collapsible=0;childLayout=tableLayout;fillColor=#ffe6cc;strokeColor=#d79b00;" parent="1" vertex="1">
          <mxGeometry x="3150" y="1400" width="660" height="274" as="geometry" />
        </mxCell>
        <mxCell id="ikYVi9CUkikHwhLRP4jJ-38" value="" style="shape=partialRectangle;collapsible=0;dropTarget=0;pointerEvents=0;fillColor=none;top=0;left=0;bottom=0;right=0;points=[[0,0.5],[1,0.5]];portConstraint=eastwest;" parent="ikYVi9CUkikHwhLRP4jJ-37" vertex="1">
          <mxGeometry y="30" width="660" height="22" as="geometry" />
        </mxCell>
        <mxCell id="ikYVi9CUkikHwhLRP4jJ-39" value="Название" style="shape=partialRectangle;html=1;whiteSpace=wrap;connectable=0;overflow=hidden;fillColor=none;top=0;left=0;bottom=0;right=0;pointerEvents=1;" parent="ikYVi9CUkikHwhLRP4jJ-38" vertex="1">
          <mxGeometry width="131" height="22" as="geometry">
            <mxRectangle width="131" height="22" as="alternateBounds" />
          </mxGeometry>
        </mxCell>
        <mxCell id="ikYVi9CUkikHwhLRP4jJ-40" value="Описание" style="shape=partialRectangle;html=1;whiteSpace=wrap;connectable=0;overflow=hidden;fillColor=none;top=0;left=0;bottom=0;right=0;pointerEvents=1;" parent="ikYVi9CUkikHwhLRP4jJ-38" vertex="1">
          <mxGeometry x="131" width="199" height="22" as="geometry">
            <mxRectangle width="199" height="22" as="alternateBounds" />
          </mxGeometry>
        </mxCell>
        <mxCell id="ikYVi9CUkikHwhLRP4jJ-41" value="Тип данных" style="shape=partialRectangle;html=1;whiteSpace=wrap;connectable=0;overflow=hidden;fillColor=none;top=0;left=0;bottom=0;right=0;pointerEvents=1;" parent="ikYVi9CUkikHwhLRP4jJ-38" vertex="1">
          <mxGeometry x="330" width="134" height="22" as="geometry">
            <mxRectangle width="134" height="22" as="alternateBounds" />
          </mxGeometry>
        </mxCell>
        <mxCell id="ikYVi9CUkikHwhLRP4jJ-42" value="Ограничение" style="shape=partialRectangle;html=1;whiteSpace=wrap;connectable=0;overflow=hidden;fillColor=none;top=0;left=0;bottom=0;right=0;pointerEvents=1;" parent="ikYVi9CUkikHwhLRP4jJ-38" vertex="1">
          <mxGeometry x="464" width="196" height="22" as="geometry">
            <mxRectangle width="196" height="22" as="alternateBounds" />
          </mxGeometry>
        </mxCell>
        <mxCell id="ikYVi9CUkikHwhLRP4jJ-43" value="" style="shape=partialRectangle;collapsible=0;dropTarget=0;pointerEvents=0;fillColor=none;top=0;left=0;bottom=0;right=0;points=[[0,0.5],[1,0.5]];portConstraint=eastwest;" parent="ikYVi9CUkikHwhLRP4jJ-37" vertex="1">
          <mxGeometry y="52" width="660" height="45" as="geometry" />
        </mxCell>
        <mxCell id="ikYVi9CUkikHwhLRP4jJ-44" value="CLIENT_ID" style="shape=partialRectangle;html=1;whiteSpace=wrap;connectable=0;overflow=hidden;fillColor=none;top=0;left=0;bottom=0;right=0;pointerEvents=1;" parent="ikYVi9CUkikHwhLRP4jJ-43" vertex="1">
          <mxGeometry width="131" height="45" as="geometry">
            <mxRectangle width="131" height="45" as="alternateBounds" />
          </mxGeometry>
        </mxCell>
        <mxCell id="ikYVi9CUkikHwhLRP4jJ-45" value="Идентификатор клиента" style="shape=partialRectangle;html=1;whiteSpace=wrap;connectable=0;overflow=hidden;fillColor=none;top=0;left=0;bottom=0;right=0;pointerEvents=1;" parent="ikYVi9CUkikHwhLRP4jJ-43" vertex="1">
          <mxGeometry x="131" width="199" height="45" as="geometry">
            <mxRectangle width="199" height="45" as="alternateBounds" />
          </mxGeometry>
        </mxCell>
        <mxCell id="ikYVi9CUkikHwhLRP4jJ-46" value="SERIAL" style="shape=partialRectangle;html=1;whiteSpace=wrap;connectable=0;overflow=hidden;fillColor=none;top=0;left=0;bottom=0;right=0;pointerEvents=1;" parent="ikYVi9CUkikHwhLRP4jJ-43" vertex="1">
          <mxGeometry x="330" width="134" height="45" as="geometry">
            <mxRectangle width="134" height="45" as="alternateBounds" />
          </mxGeometry>
        </mxCell>
        <mxCell id="ikYVi9CUkikHwhLRP4jJ-47" value="PRIMARY KEY" style="shape=partialRectangle;html=1;whiteSpace=wrap;connectable=0;overflow=hidden;fillColor=none;top=0;left=0;bottom=0;right=0;pointerEvents=1;" parent="ikYVi9CUkikHwhLRP4jJ-43" vertex="1">
          <mxGeometry x="464" width="196" height="45" as="geometry">
            <mxRectangle width="196" height="45" as="alternateBounds" />
          </mxGeometry>
        </mxCell>
        <mxCell id="ikYVi9CUkikHwhLRP4jJ-48" value="" style="shape=partialRectangle;collapsible=0;dropTarget=0;pointerEvents=0;fillColor=none;top=0;left=0;bottom=0;right=0;points=[[0,0.5],[1,0.5]];portConstraint=eastwest;" parent="ikYVi9CUkikHwhLRP4jJ-37" vertex="1">
          <mxGeometry y="97" width="660" height="44" as="geometry" />
        </mxCell>
        <mxCell id="ikYVi9CUkikHwhLRP4jJ-49" value="CLIENT_NM" style="shape=partialRectangle;html=1;whiteSpace=wrap;connectable=0;overflow=hidden;fillColor=none;top=0;left=0;bottom=0;right=0;pointerEvents=1;" parent="ikYVi9CUkikHwhLRP4jJ-48" vertex="1">
          <mxGeometry width="131" height="44" as="geometry">
            <mxRectangle width="131" height="44" as="alternateBounds" />
          </mxGeometry>
        </mxCell>
        <mxCell id="ikYVi9CUkikHwhLRP4jJ-50" value="Имя клиента" style="shape=partialRectangle;html=1;whiteSpace=wrap;connectable=0;overflow=hidden;fillColor=none;top=0;left=0;bottom=0;right=0;pointerEvents=1;" parent="ikYVi9CUkikHwhLRP4jJ-48" vertex="1">
          <mxGeometry x="131" width="199" height="44" as="geometry">
            <mxRectangle width="199" height="44" as="alternateBounds" />
          </mxGeometry>
        </mxCell>
        <mxCell id="ikYVi9CUkikHwhLRP4jJ-51" value="VARCHAR(255)" style="shape=partialRectangle;html=1;whiteSpace=wrap;connectable=0;overflow=hidden;fillColor=none;top=0;left=0;bottom=0;right=0;pointerEvents=1;" parent="ikYVi9CUkikHwhLRP4jJ-48" vertex="1">
          <mxGeometry x="330" width="134" height="44" as="geometry">
            <mxRectangle width="134" height="44" as="alternateBounds" />
          </mxGeometry>
        </mxCell>
        <mxCell id="ikYVi9CUkikHwhLRP4jJ-52" value="" style="shape=partialRectangle;html=1;whiteSpace=wrap;connectable=0;overflow=hidden;fillColor=none;top=0;left=0;bottom=0;right=0;pointerEvents=1;" parent="ikYVi9CUkikHwhLRP4jJ-48" vertex="1">
          <mxGeometry x="464" width="196" height="44" as="geometry">
            <mxRectangle width="196" height="44" as="alternateBounds" />
          </mxGeometry>
        </mxCell>
        <mxCell id="ikYVi9CUkikHwhLRP4jJ-53" value="" style="shape=partialRectangle;collapsible=0;dropTarget=0;pointerEvents=0;fillColor=none;top=0;left=0;bottom=0;right=0;points=[[0,0.5],[1,0.5]];portConstraint=eastwest;" parent="ikYVi9CUkikHwhLRP4jJ-37" vertex="1">
          <mxGeometry y="141" width="660" height="45" as="geometry" />
        </mxCell>
        <mxCell id="ikYVi9CUkikHwhLRP4jJ-54" value="EMAIL" style="shape=partialRectangle;html=1;whiteSpace=wrap;connectable=0;overflow=hidden;fillColor=none;top=0;left=0;bottom=0;right=0;pointerEvents=1;" parent="ikYVi9CUkikHwhLRP4jJ-53" vertex="1">
          <mxGeometry width="131" height="45" as="geometry">
            <mxRectangle width="131" height="45" as="alternateBounds" />
          </mxGeometry>
        </mxCell>
        <mxCell id="ikYVi9CUkikHwhLRP4jJ-55" value="Email" style="shape=partialRectangle;html=1;whiteSpace=wrap;connectable=0;overflow=hidden;fillColor=none;top=0;left=0;bottom=0;right=0;pointerEvents=1;" parent="ikYVi9CUkikHwhLRP4jJ-53" vertex="1">
          <mxGeometry x="131" width="199" height="45" as="geometry">
            <mxRectangle width="199" height="45" as="alternateBounds" />
          </mxGeometry>
        </mxCell>
        <mxCell id="ikYVi9CUkikHwhLRP4jJ-56" value="VARCHAR(255)" style="shape=partialRectangle;html=1;whiteSpace=wrap;connectable=0;overflow=hidden;fillColor=none;top=0;left=0;bottom=0;right=0;pointerEvents=1;" parent="ikYVi9CUkikHwhLRP4jJ-53" vertex="1">
          <mxGeometry x="330" width="134" height="45" as="geometry">
            <mxRectangle width="134" height="45" as="alternateBounds" />
          </mxGeometry>
        </mxCell>
        <mxCell id="ikYVi9CUkikHwhLRP4jJ-57" value="" style="shape=partialRectangle;html=1;whiteSpace=wrap;connectable=0;overflow=hidden;fillColor=none;top=0;left=0;bottom=0;right=0;pointerEvents=1;" parent="ikYVi9CUkikHwhLRP4jJ-53" vertex="1">
          <mxGeometry x="464" width="196" height="45" as="geometry">
            <mxRectangle width="196" height="45" as="alternateBounds" />
          </mxGeometry>
        </mxCell>
        <mxCell id="ikYVi9CUkikHwhLRP4jJ-58" value="" style="shape=partialRectangle;collapsible=0;dropTarget=0;pointerEvents=0;fillColor=none;top=0;left=0;bottom=0;right=0;points=[[0,0.5],[1,0.5]];portConstraint=eastwest;" parent="ikYVi9CUkikHwhLRP4jJ-37" vertex="1">
          <mxGeometry y="186" width="660" height="44" as="geometry" />
        </mxCell>
        <mxCell id="ikYVi9CUkikHwhLRP4jJ-59" value="PWD_HASH" style="shape=partialRectangle;html=1;whiteSpace=wrap;connectable=0;overflow=hidden;fillColor=none;top=0;left=0;bottom=0;right=0;pointerEvents=1;" parent="ikYVi9CUkikHwhLRP4jJ-58" vertex="1">
          <mxGeometry width="131" height="44" as="geometry">
            <mxRectangle width="131" height="44" as="alternateBounds" />
          </mxGeometry>
        </mxCell>
        <mxCell id="ikYVi9CUkikHwhLRP4jJ-60" value="Пароль" style="shape=partialRectangle;html=1;whiteSpace=wrap;connectable=0;overflow=hidden;fillColor=none;top=0;left=0;bottom=0;right=0;pointerEvents=1;" parent="ikYVi9CUkikHwhLRP4jJ-58" vertex="1">
          <mxGeometry x="131" width="199" height="44" as="geometry">
            <mxRectangle width="199" height="44" as="alternateBounds" />
          </mxGeometry>
        </mxCell>
        <mxCell id="ikYVi9CUkikHwhLRP4jJ-61" value="CHAR(32)" style="shape=partialRectangle;html=1;whiteSpace=wrap;connectable=0;overflow=hidden;fillColor=none;top=0;left=0;bottom=0;right=0;pointerEvents=1;" parent="ikYVi9CUkikHwhLRP4jJ-58" vertex="1">
          <mxGeometry x="330" width="134" height="44" as="geometry">
            <mxRectangle width="134" height="44" as="alternateBounds" />
          </mxGeometry>
        </mxCell>
        <mxCell id="ikYVi9CUkikHwhLRP4jJ-62" value="" style="shape=partialRectangle;html=1;whiteSpace=wrap;connectable=0;overflow=hidden;fillColor=none;top=0;left=0;bottom=0;right=0;pointerEvents=1;" parent="ikYVi9CUkikHwhLRP4jJ-58" vertex="1">
          <mxGeometry x="464" width="196" height="44" as="geometry">
            <mxRectangle width="196" height="44" as="alternateBounds" />
          </mxGeometry>
        </mxCell>
        <mxCell id="ikYVi9CUkikHwhLRP4jJ-63" style="shape=partialRectangle;collapsible=0;dropTarget=0;pointerEvents=0;fillColor=none;top=0;left=0;bottom=0;right=0;points=[[0,0.5],[1,0.5]];portConstraint=eastwest;" parent="ikYVi9CUkikHwhLRP4jJ-37" vertex="1">
          <mxGeometry y="230" width="660" height="44" as="geometry" />
        </mxCell>
        <mxCell id="ikYVi9CUkikHwhLRP4jJ-64" value="PAYMENT_ACCOUNT" style="shape=partialRectangle;html=1;whiteSpace=wrap;connectable=0;overflow=hidden;fillColor=none;top=0;left=0;bottom=0;right=0;pointerEvents=1;" parent="ikYVi9CUkikHwhLRP4jJ-63" vertex="1">
          <mxGeometry width="131" height="44" as="geometry">
            <mxRectangle width="131" height="44" as="alternateBounds" />
          </mxGeometry>
        </mxCell>
        <mxCell id="ikYVi9CUkikHwhLRP4jJ-65" value="Платежный аккаунт" style="shape=partialRectangle;html=1;whiteSpace=wrap;connectable=0;overflow=hidden;fillColor=none;top=0;left=0;bottom=0;right=0;pointerEvents=1;" parent="ikYVi9CUkikHwhLRP4jJ-63" vertex="1">
          <mxGeometry x="131" width="199" height="44" as="geometry">
            <mxRectangle width="199" height="44" as="alternateBounds" />
          </mxGeometry>
        </mxCell>
        <mxCell id="ikYVi9CUkikHwhLRP4jJ-66" value="CHAR(16)" style="shape=partialRectangle;html=1;whiteSpace=wrap;connectable=0;overflow=hidden;fillColor=none;top=0;left=0;bottom=0;right=0;pointerEvents=1;" parent="ikYVi9CUkikHwhLRP4jJ-63" vertex="1">
          <mxGeometry x="330" width="134" height="44" as="geometry">
            <mxRectangle width="134" height="44" as="alternateBounds" />
          </mxGeometry>
        </mxCell>
        <mxCell id="ikYVi9CUkikHwhLRP4jJ-67" style="shape=partialRectangle;html=1;whiteSpace=wrap;connectable=0;overflow=hidden;fillColor=none;top=0;left=0;bottom=0;right=0;pointerEvents=1;" parent="ikYVi9CUkikHwhLRP4jJ-63" vertex="1">
          <mxGeometry x="464" width="196" height="44" as="geometry">
            <mxRectangle width="196" height="44" as="alternateBounds" />
          </mxGeometry>
        </mxCell>
        <mxCell id="ikYVi9CUkikHwhLRP4jJ-73" value="" style="edgeStyle=orthogonalEdgeStyle;fontSize=12;html=1;endArrow=ERzeroToMany;startArrow=ERmandOne;" parent="1" source="ikYVi9CUkikHwhLRP4jJ-43" target="ikYVi9CUkikHwhLRP4jJ-17" edge="1">
          <mxGeometry width="100" height="100" relative="1" as="geometry">
            <mxPoint x="3130" y="1320" as="sourcePoint" />
            <mxPoint x="3050" y="1320" as="targetPoint" />
          </mxGeometry>
        </mxCell>
        <mxCell id="ikYVi9CUkikHwhLRP4jJ-75" value="" style="edgeStyle=orthogonalEdgeStyle;fontSize=12;html=1;endArrow=ERoneToMany;startArrow=ERmandOne;" parent="1" source="dN4xW0M0NbgQwwogxyiH-393" target="ikYVi9CUkikHwhLRP4jJ-7" edge="1">
          <mxGeometry width="100" height="100" relative="1" as="geometry">
            <mxPoint x="2290" y="1330" as="sourcePoint" />
            <mxPoint x="2380" y="1330" as="targetPoint" />
          </mxGeometry>
        </mxCell>
        <mxCell id="ikYVi9CUkikHwhLRP4jJ-77" value="" style="edgeStyle=orthogonalEdgeStyle;fontSize=12;html=1;endArrow=ERzeroToMany;startArrow=ERmandOne;entryX=0;entryY=0.5;entryDx=0;entryDy=0;" parent="1" source="dN4xW0M0NbgQwwogxyiH-225" target="dN4xW0M0NbgQwwogxyiH-320" edge="1">
          <mxGeometry width="100" height="100" relative="1" as="geometry">
            <mxPoint x="300" y="1260" as="sourcePoint" />
            <mxPoint x="-100" y="1070" as="targetPoint" />
            <Array as="points">
              <mxPoint x="-120" y="1410" />
              <mxPoint x="-120" y="988" />
            </Array>
          </mxGeometry>
        </mxCell>
        <mxCell id="ikYVi9CUkikHwhLRP4jJ-79" value="" style="edgeStyle=orthogonalEdgeStyle;fontSize=12;html=1;endArrow=ERzeroToMany;startArrow=ERmandOne;exitX=0;exitY=0.5;exitDx=0;exitDy=0;" parent="1" source="dN4xW0M0NbgQwwogxyiH-337" target="dN4xW0M0NbgQwwogxyiH-315" edge="1">
          <mxGeometry width="100" height="100" relative="1" as="geometry">
            <mxPoint x="760" y="980" as="sourcePoint" />
            <mxPoint x="620" y="980" as="targetPoint" />
            <Array as="points">
              <mxPoint x="630" y="833" />
              <mxPoint x="630" y="943" />
            </Array>
          </mxGeometry>
        </mxCell>
        <mxCell id="ikYVi9CUkikHwhLRP4jJ-80" value="" style="edgeStyle=orthogonalEdgeStyle;fontSize=12;html=1;endArrow=ERzeroToMany;startArrow=ERmandOne;" parent="1" source="dN4xW0M0NbgQwwogxyiH-337" target="dN4xW0M0NbgQwwogxyiH-383" edge="1">
          <mxGeometry width="100" height="100" relative="1" as="geometry">
            <mxPoint x="1620" y="999.9966666666667" as="sourcePoint" />
            <mxPoint x="1785" y="1191.93" as="targetPoint" />
          </mxGeometry>
        </mxCell>
        <mxCell id="ikYVi9CUkikHwhLRP4jJ-81" value="" style="edgeStyle=orthogonalEdgeStyle;fontSize=12;html=1;endArrow=ERzeroToMany;startArrow=ERmandOne;" parent="1" source="dN4xW0M0NbgQwwogxyiH-225" target="dN4xW0M0NbgQwwogxyiH-272" edge="1">
          <mxGeometry width="100" height="100" relative="1" as="geometry">
            <mxPoint x="544.9700000000005" y="1780" as="sourcePoint" />
            <mxPoint x="655.9300000000001" y="1992" as="targetPoint" />
            <Array as="points">
              <mxPoint x="610" y="1410" />
              <mxPoint x="610" y="2029" />
            </Array>
          </mxGeometry>
        </mxCell>
        <mxCell id="ikYVi9CUkikHwhLRP4jJ-82" value="" style="edgeStyle=orthogonalEdgeStyle;fontSize=12;html=1;endArrow=ERzeroToOne;startArrow=ERmandOne;" parent="1" source="dN4xW0M0NbgQwwogxyiH-267" target="dN4xW0M0NbgQwwogxyiH-388" edge="1">
          <mxGeometry width="100" height="100" relative="1" as="geometry">
            <mxPoint x="1470" y="1929" as="sourcePoint" />
            <mxPoint x="1640" y="1760" as="targetPoint" />
            <Array as="points">
              <mxPoint x="1470" y="1985" />
              <mxPoint x="1470" y="1559" />
            </Array>
          </mxGeometry>
        </mxCell>
      </root>
    </mxGraphModel>
  </diagram>
</mxfile>
